<svg xmlns="http://www.w3.org/2000/svg" version="1.1" style="font-family:Lato, &#x27;Helvetica Neue&#x27;, Helvetica, Arial, &#x27;Liberation Sans&#x27;, sans-serif;font-size:18px;background-color:white;text-rendering:geometricPrecision;-webkit-font-smoothing:antialiased" width="850" height="788.5" viewBox="0 0 850 788.5"><defs><style>@import url(https://ourworldindata.org/fonts.css)</style></defs><defs><pattern id="noDataPattern" patternUnits="userSpaceOnUse" width="4" height="4" patternTransform="rotate(-45 2 2)"><path d="M -1,2 l 6,0" stroke="#ccc" stroke-width="0.7"></path></pattern></defs><rect class="background-fill" fill="white" width="850" height="788.5"></rect><g class="HeaderView"><g transform="translate(769, 16) scale(1)"><svg className="owidLogo" xmlns="http://www.w3.org/2000/svg" width="65" height="36" viewBox="0 0 65 36"  fill="none"><path fill="#002147" d="M0 0h64.8v36H0z"/><path fill="#CE261E" d="M0 33.3h64.8V36H0z"/><path fill="#fff" d="M13.796 10.575c0 .636-.106 1.226-.318 1.77a4.193 4.193 0 0 1-.894 1.404 4.084 4.084 0 0 1-1.386.93c-.54.22-1.138.33-1.794.33-.656 0-1.256-.11-1.8-.33a4.149 4.149 0 0 1-1.392-.93 4.193 4.193 0 0 1-.894-1.404A4.833 4.833 0 0 1 5 10.575c0-.636.106-1.224.318-1.764a4.18 4.18 0 0 1 .894-1.41 4.076 4.076 0 0 1 1.392-.924 4.684 4.684 0 0 1 1.8-.336c.656 0 1.254.112 1.794.336.54.224 1.002.534 1.386.93.384.392.682.86.894 1.404.212.54.318 1.128.318 1.764Zm-1.656 0c0-.476-.064-.902-.192-1.278a2.671 2.671 0 0 0-.54-.966 2.332 2.332 0 0 0-.864-.606 2.94 2.94 0 0 0-1.14-.21c-.424 0-.806.07-1.146.21-.34.14-.63.342-.87.606a2.742 2.742 0 0 0-.546.966 3.955 3.955 0 0 0-.192 1.278c0 .476.064.904.192 1.284.128.376.31.696.546.96.24.26.53.46.87.6.34.14.722.21 1.146.21.424 0 .804-.07 1.14-.21.34-.14.628-.34.864-.6.236-.264.416-.584.54-.96a4.01 4.01 0 0 0 .192-1.284ZM16.104 8.757v3.912c0 .376.086.668.258.876.176.204.438.306.786.306.256 0 .496-.056.72-.168a2.58 2.58 0 0 0 .636-.474V8.757h1.482v6.156h-.906c-.192 0-.318-.09-.378-.27l-.102-.492a4.65 4.65 0 0 1-.396.354 2.577 2.577 0 0 1-.438.27 2.35 2.35 0 0 1-.498.168 2.345 2.345 0 0 1-.57.066c-.336 0-.634-.056-.894-.168a1.821 1.821 0 0 1-.648-.486 2.157 2.157 0 0 1-.402-.738 3.233 3.233 0 0 1-.132-.948V8.757h1.482ZM21.328 14.913V8.757h.87c.152 0 .258.028.318.084.06.056.1.152.12.288l.09.744c.22-.38.478-.68.774-.9.296-.22.628-.33.996-.33.304 0 .556.07.756.21l-.192 1.11c-.012.072-.038.124-.078.156a.278.278 0 0 1-.162.042 1.01 1.01 0 0 1-.246-.042 1.646 1.646 0 0 0-.414-.042c-.308 0-.572.086-.792.258-.22.168-.406.416-.558.744v3.834h-1.482ZM27.347 6.237h1.356a.57.57 0 0 1 .348.102c.096.064.16.152.192.264l1.476 5.19c.036.128.068.268.096.42.032.148.062.306.09.474a5.968 5.968 0 0 1 .228-.894l1.704-5.19a.575.575 0 0 1 .186-.252.543.543 0 0 1 .348-.114h.474a.57.57 0 0 1 .348.102.497.497 0 0 1 .192.264l1.692 5.19c.088.256.164.54.228.852.028-.156.056-.306.084-.45.032-.144.064-.278.096-.402l1.476-5.19c.028-.1.09-.186.186-.258a.563.563 0 0 1 .348-.108h1.266l-2.694 8.676h-1.458l-1.896-5.928-.078-.246a9.504 9.504 0 0 1-.072-.282c-.024.1-.05.194-.078.282-.024.088-.048.17-.072.246l-1.914 5.928H30.04l-2.694-8.676ZM42.771 8.661c.46 0 .876.074 1.248.222.376.148.696.358.96.63s.468.604.612.996c.144.392.216.83.216 1.314 0 .488-.072.928-.216 1.32a2.85 2.85 0 0 1-.612 1.002 2.653 2.653 0 0 1-.96.636 3.35 3.35 0 0 1-1.248.222c-.46 0-.878-.074-1.254-.222a2.712 2.712 0 0 1-.966-.636 2.922 2.922 0 0 1-.618-1.002 3.807 3.807 0 0 1-.216-1.32c0-.484.072-.922.216-1.314.148-.392.354-.724.618-.996.268-.272.59-.482.966-.63a3.397 3.397 0 0 1 1.254-.222Zm0 5.202c.512 0 .89-.172 1.134-.516.248-.344.372-.848.372-1.512s-.124-1.17-.372-1.518c-.244-.348-.622-.522-1.134-.522-.52 0-.904.176-1.152.528-.248.348-.372.852-.372 1.512s.124 1.164.372 1.512c.248.344.632.516 1.152.516ZM46.723 14.913V8.757h.87c.152 0 .258.028.318.084.06.056.1.152.12.288l.09.744c.22-.38.478-.68.774-.9.296-.22.628-.33.996-.33.304 0 .556.07.756.21l-.192 1.11c-.012.072-.038.124-.078.156a.278.278 0 0 1-.162.042 1.01 1.01 0 0 1-.246-.042 1.646 1.646 0 0 0-.414-.042c-.308 0-.572.086-.792.258-.22.168-.406.416-.558.744v3.834h-1.482ZM52.96 5.997v8.916h-1.482V5.997h1.482ZM58.732 14.913c-.192 0-.318-.09-.378-.27l-.12-.594a3.68 3.68 0 0 1-.402.39c-.14.116-.292.216-.456.3-.16.084-.334.148-.522.192a2.372 2.372 0 0 1-.6.072c-.336 0-.644-.07-.924-.21a2.098 2.098 0 0 1-.726-.606 3.033 3.033 0 0 1-.468-.99 5.072 5.072 0 0 1-.162-1.344c0-.456.062-.88.186-1.272s.302-.732.534-1.02c.232-.288.51-.512.834-.672a2.384 2.384 0 0 1 1.092-.246 2.103 2.103 0 0 1 1.536.606V5.997h1.482v8.916h-.906Zm-1.974-1.086c.308 0 .57-.064.786-.192.216-.128.42-.31.612-.546v-2.76a1.452 1.452 0 0 0-.552-.432 1.597 1.597 0 0 0-.636-.126c-.224 0-.428.042-.612.126a1.21 1.21 0 0 0-.462.384c-.124.168-.22.384-.288.648-.068.26-.102.568-.102.924 0 .36.028.666.084.918.06.248.144.452.252.612.108.156.24.27.396.342.156.068.33.102.522.102ZM16.331 20.757v6.156H14.85v-6.156h1.481Zm.223-1.794a.844.844 0 0 1-.078.36.963.963 0 0 1-.21.294.995.995 0 0 1-.3.204.963.963 0 0 1-.372.072.948.948 0 0 1-.367-.072 1.018 1.018 0 0 1-.498-.498.963.963 0 0 1 0-.732.995.995 0 0 1 .205-.3.929.929 0 0 1 .293-.198.899.899 0 0 1 .738 0 .912.912 0 0 1 .3.198.943.943 0 0 1 .288.672ZM17.771 26.913v-6.156h.906c.192 0 .318.09.378.27l.102.486a2.934 2.934 0 0 1 .828-.618c.156-.076.322-.134.498-.174.176-.04.368-.06.576-.06.336 0 .634.058.894.174.26.112.476.272.648.48.176.204.308.45.396.738.092.284.138.598.138.942v3.918h-1.482v-3.918c0-.376-.088-.666-.264-.87-.172-.208-.432-.312-.78-.312-.256 0-.496.058-.72.174a2.58 2.58 0 0 0-.636.474v4.452h-1.482ZM34.22 22.575c0 .636-.106 1.22-.318 1.752-.212.532-.51.99-.894 1.374a4 4 0 0 1-1.386.894 4.87 4.87 0 0 1-1.794.318h-3.312v-8.676h3.312a4.79 4.79 0 0 1 1.794.324 4 4 0 0 1 1.386.894c.384.38.682.836.894 1.368.212.532.318 1.116.318 1.752Zm-1.65 0c0-.476-.064-.902-.192-1.278a2.68 2.68 0 0 0-.546-.96 2.332 2.332 0 0 0-.864-.606 2.94 2.94 0 0 0-1.14-.21h-1.686v6.108h1.686c.424 0 .804-.07 1.14-.21.34-.14.628-.34.864-.6a2.75 2.75 0 0 0 .546-.96 4.01 4.01 0 0 0 .192-1.284ZM39.98 26.913h-.665c-.14 0-.25-.02-.33-.06-.08-.044-.14-.13-.18-.258l-.132-.438c-.156.14-.31.264-.462.372a2.804 2.804 0 0 1-.462.264c-.16.072-.33.126-.51.162-.18.036-.38.054-.6.054-.26 0-.5-.034-.72-.102a1.618 1.618 0 0 1-.57-.318 1.448 1.448 0 0 1-.366-.522 1.852 1.852 0 0 1-.132-.726c0-.232.06-.46.18-.684.124-.228.328-.432.612-.612.284-.184.662-.336 1.134-.456.472-.12 1.058-.188 1.758-.204v-.36c0-.412-.088-.716-.264-.912-.172-.2-.424-.3-.756-.3a1.837 1.837 0 0 0-1.02.276c-.116.068-.224.13-.324.186a.664.664 0 0 1-.33.084.429.429 0 0 1-.258-.078.614.614 0 0 1-.174-.192l-.27-.474c.708-.648 1.562-.972 2.562-.972.36 0 .68.06.96.18.284.116.524.28.72.492.196.208.344.458.444.75.104.292.156.612.156.96v3.888Zm-2.88-.924c.153 0 .293-.014.42-.042.129-.028.249-.07.36-.126.117-.056.227-.124.33-.204.109-.084.217-.182.325-.294v-1.038c-.432.02-.794.058-1.086.114-.288.052-.52.12-.696.204a.923.923 0 0 0-.378.294.664.664 0 0 0-.108.366c0 .26.076.446.228.558.156.112.358.168.606.168ZM43.22 27.01c-.532 0-.942-.15-1.23-.45-.288-.305-.432-.723-.432-1.255v-3.438h-.624a.31.31 0 0 1-.21-.078c-.056-.052-.084-.13-.084-.234v-.588l.99-.162.312-1.68a.302.302 0 0 1 .108-.186.365.365 0 0 1 .222-.066h.768v1.938h1.62v1.056h-1.62v3.336c0 .192.048.342.144.45a.488.488 0 0 0 .384.162c.092 0 .168-.01.228-.03.064-.024.118-.048.162-.072.048-.024.09-.046.126-.066a.194.194 0 0 1 .108-.036.16.16 0 0 1 .108.036c.028.02.058.052.09.096l.444.72c-.216.18-.464.316-.744.408a2.77 2.77 0 0 1-.87.138ZM50.423 26.913h-.666c-.14 0-.25-.02-.33-.06-.08-.044-.14-.13-.18-.258l-.132-.438c-.156.14-.31.264-.462.372a2.804 2.804 0 0 1-.462.264c-.16.072-.33.126-.51.162-.18.036-.38.054-.6.054-.26 0-.5-.034-.72-.102a1.618 1.618 0 0 1-.57-.318 1.448 1.448 0 0 1-.366-.522 1.852 1.852 0 0 1-.132-.726c0-.232.06-.46.18-.684.124-.228.328-.432.612-.612.284-.184.662-.336 1.134-.456.472-.12 1.058-.188 1.758-.204v-.36c0-.412-.088-.716-.264-.912-.172-.2-.424-.3-.756-.3a1.837 1.837 0 0 0-1.02.276c-.116.068-.224.13-.324.186a.664.664 0 0 1-.33.084.429.429 0 0 1-.258-.078.614.614 0 0 1-.174-.192l-.27-.474c.708-.648 1.562-.972 2.562-.972.36 0 .68.06.96.18.284.116.524.28.72.492.196.208.344.458.444.75.104.292.156.612.156.96v3.888Zm-2.88-.924c.152 0 .292-.014.42-.042.128-.028.248-.07.36-.126.116-.056.226-.124.33-.204.108-.084.216-.182.324-.294v-1.038c-.432.02-.794.058-1.086.114-.288.052-.52.12-.696.204a.923.923 0 0 0-.378.294.664.664 0 0 0-.108.366c0 .26.076.446.228.558.156.112.358.168.606.168Z"/></svg></g><a href="https://ourworldindata.org/grapher/energy-consumption-by-source-and-country?stackMode=absolute&amp;time=earliest..2022&amp;country=~NZL" style="font-family:&#x27;Playfair Display&#x27;, Georgia, &#x27;Times New Roman&#x27;, &#x27;Liberation Serif&#x27;, serif" target="_blank" rel="noopener"><text font-size="24.75" font-weight="500" x="16.0" y="40.0" fill="#5b5b5b"><tspan x="16" y="40.0075">Energy consumption by source, New Zealand</tspan></text></a><text x="16.0" y="63.9" style="font-size:14.625px;line-height:1.2" fill="#5b5b5b"><tspan x="16" y="63.9">Measured in terms of <tspan>primary energy<tspan style="font-feature-settings:&quot;sups&quot;">¹</tspan></tspan> using the <tspan>substitution method<tspan style="font-feature-settings:&quot;sups&quot;">²</tspan></tspan>.</tspan></text></g><g style="pointer-events:none"><g class="StackedArea"><defs><clipPath id="boundsClip-7"><rect x="75.945" y="83.25" width="818" height="900.7"></rect></clipPath></defs><rect x="16" y="83.25" width="818" height="450.35" fill="none"></rect><g class="DualAxisView"><g class="HorizontalAxis"><line x1="75.9" y1="513.1" x2="75.9" y2="518.1" stroke="#999" stroke-width="1"></line><line x1="726.1" y1="513.1" x2="726.1" y2="518.1" stroke="#999" stroke-width="1"></line><line x1="133" y1="513.1" x2="133" y2="518.1" stroke="#999" stroke-width="1"></line><line x1="247" y1="513.1" x2="247" y2="518.1" stroke="#999" stroke-width="1"></line><line x1="361.1" y1="513.1" x2="361.1" y2="518.1" stroke="#999" stroke-width="1"></line><line x1="475.2" y1="513.1" x2="475.2" y2="518.1" stroke="#999" stroke-width="1"></line><line x1="589.2" y1="513.1" x2="589.2" y2="518.1" stroke="#999" stroke-width="1"></line><text x="75.945" y="531.6" fill="#5b5b5b" text-anchor="start" font-size="13.5">1965</text><text x="726.0999999999999" y="531.6" fill="#5b5b5b" text-anchor="end" font-size="13.5">2022</text><text x="133" y="531.6" fill="#5b5b5b" text-anchor="middle" font-size="13.5">1970</text><text x="247" y="531.6" fill="#5b5b5b" text-anchor="middle" font-size="13.5">1980</text><text x="361.1" y="531.6" fill="#5b5b5b" text-anchor="middle" font-size="13.5">1990</text><text x="475.2" y="531.6" fill="#5b5b5b" text-anchor="middle" font-size="13.5">2000</text><text x="589.2" y="531.6" fill="#5b5b5b" text-anchor="middle" font-size="13.5">2010</text></g><g class="VerticalAxis"><text x="70.94" y="513.1" dy=".32em" text-anchor="end" fill="#5b5b5b" font-size="13.5">0 TWh</text><text x="70.94" y="432.9" dy=".32em" text-anchor="end" fill="#5b5b5b" font-size="13.5">50 TWh</text><text x="70.94" y="352.6" dy=".32em" text-anchor="end" fill="#5b5b5b" font-size="13.5">100 TWh</text><text x="70.94" y="272.4" dy=".32em" text-anchor="end" fill="#5b5b5b" font-size="13.5">150 TWh</text><text x="70.94" y="192.1" dy=".32em" text-anchor="end" fill="#5b5b5b" font-size="13.5">200 TWh</text><text x="70.94" y="111.9" dy=".32em" text-anchor="end" fill="#5b5b5b" font-size="13.5">250 TWh</text></g><g class="AxisGridLines horizontalLines"><line x1="75.94" y1="513.1" x2="726.10" y2="513.1" stroke="#999" stroke-width="1"></line><line x1="75.94" y1="432.9" x2="726.10" y2="432.9" stroke="#ddd" stroke-width="1" stroke-dasharray="3,2"></line><line x1="75.94" y1="352.6" x2="726.10" y2="352.6" stroke="#ddd" stroke-width="1" stroke-dasharray="3,2"></line><line x1="75.94" y1="272.4" x2="726.10" y2="272.4" stroke="#ddd" stroke-width="1" stroke-dasharray="3,2"></line><line x1="75.94" y1="192.1" x2="726.10" y2="192.1" stroke="#ddd" stroke-width="1" stroke-dasharray="3,2"></line><line x1="75.94" y1="111.9" x2="726.10" y2="111.9" stroke="#ddd" stroke-width="1" stroke-dasharray="3,2"></line></g></g><g clip-path="url(#boundsClip-7)"><g class="LineLabels" style="cursor:default"><g class="legendMark"><g class="indicator"><path d="M730.1,158.1 H739.1 V145.9875 H757.1" stroke="#999" stroke-width="0.5" fill="none"></path></g><rect x="726.1" y="132.4875" width="104.25500000000001" height="27" fill="#fff" opacity="0"></rect><text font-size="13.50" font-weight="400" x="761.1" y="144.2" fill="#00295b"><tspan x="761.1" y="144.23250000000002">Other</tspan><tspan x="761.1" y="157.73250000000002">renewables</tspan></text></g><g class="legendMark"><g class="indicator"><path d="M730.1,177.1 H748.1 V168.2375 H757.1" stroke="#999" stroke-width="0.5" fill="none"></path></g><rect x="726.1" y="161.4875" width="83.195" height="13.5" fill="#fff" opacity="0"></rect><text font-size="13.50" font-weight="400" x="761.1" y="173.2" fill="#d73c50"><tspan x="761.1" y="173.23250000000002">Biofuels</tspan></text></g><g class="legendMark"><g class="indicator"><path d="M730.1,177.7 H748.1 V183.7375 H757.1" stroke="#999" stroke-width="0.5" fill="none"></path></g><rect x="726.1" y="176.9875" width="66.59" height="13.5" fill="#fff" opacity="0"></rect><text font-size="13.50" font-weight="400" x="761.1" y="188.7" fill="#970046"><tspan x="761.1" y="188.73250000000002">Solar</tspan></text></g><g class="legendMark"><g class="indicator"><path d="M730.1,184.3 H739.1 V199.2375 H757.1" stroke="#999" stroke-width="0.5" fill="none"></path></g><rect x="726.1" y="192.4875" width="65.78" height="13.5" fill="#fff" opacity="0"></rect><text font-size="13.50" font-weight="400" x="761.1" y="204.2" fill="#b16214"><tspan x="761.1" y="204.23250000000002">Wind</tspan></text></g><g class="legendMark"><g class="indicator"><path d="M730.1,245.3 H743.6 V245.3 H757.1" stroke="#999" stroke-width="0.5" fill="none"></path></g><rect x="726.1" y="238.55" width="107.9" height="13.5" fill="#fff" opacity="0"></rect><text font-size="13.50" font-weight="400" x="761.1" y="250.3" fill="#b13507"><tspan x="761.1" y="250.29500000000002">Hydropower</tspan></text></g><g class="legendMark"><g class="indicator"><path d="M730.1,329.3 H743.6 V329.3 H757.1" stroke="#999" stroke-width="0.5" fill="none"></path></g><rect x="726.1" y="322.55" width="59.84" height="13.5" fill="#fff" opacity="0"></rect><text font-size="13.50" font-weight="400" x="761.1" y="334.3" fill="#3b25b1"><tspan x="761.1" y="334.295">Gas</tspan></text></g><g class="legendMark"><g class="indicator"><path d="M730.1,368.5 H743.6 V368.5 H757.1" stroke="#999" stroke-width="0.5" fill="none"></path></g><rect x="726.1" y="361.75" width="62.81" height="13.5" fill="#fff" opacity="0"></rect><text font-size="13.50" font-weight="400" x="761.1" y="373.5" fill="#883039"><tspan x="761.1" y="373.495">Coal</tspan></text></g><g class="legendMark"><g class="indicator"><path d="M730.1,445.9 H743.6 V445.9 H757.1" stroke="#999" stroke-width="0.5" fill="none"></path></g><rect x="726.1" y="439.15" width="51.47" height="13.5" fill="#fff" opacity="0"></rect><text font-size="13.50" font-weight="400" x="761.1" y="450.9" fill="#4c6a9c"><tspan x="761.1" y="450.895">Oil</tspan></text></g></g><g class="Areas"><rect x="75.945" y="89.25" width="650.155" height="423.85" opacity="0" fill="rgba(255,255,255,0)"></rect><path class="Oil-area" stroke-linecap="round" d="M75.9 460.7L87.4 455.1L98.8 452.2L110.2 450.5L121.6 448.1L133 436.7L144.4 434.2L155.8 428.1L167.2 423.3L178.6 428.1L190 430.9L201.4 428.5L212.8 428.5L224.2 431.6L235.6 431L247 434.7L258.4 438.5L269.9 438.6L281.3 441.7L292.7 439.4L304.1 444.1L315.5 451L326.9 441.2L338.3 442.8L349.7 440.5L361.1 431.5L372.5 430.1L383.9 427.5L395.3 428L406.7 414.7L418.1 406.7L429.5 404.7L440.9 399.2L452.4 397.8L463.8 396.2L475.2 393.7L486.6 392.3L498 388.8L509.4 381.2L520.8 383.1L532.2 376L543.6 375.4L555 374.8L566.4 373.1L577.8 379.3L589.2 378.2L600.6 374.9L612 376.7L623.4 375.1L634.9 372.3L646.3 366.6L657.7 362.6L669.1 354L680.5 353.5L691.9 349.5L703.3 378L714.7 378.6L726.1 378.7L726.1 513.1L75.9 513.1" fill="#4C6A9C" fill-opacity="0.8"></path><path class="Coal-area" stroke-linecap="round" d="M75.9 430L87.4 425.3L98.8 424.9L110.2 424.9L121.6 421.8L133 410.4L144.4 410.8L155.8 404.1L167.2 396.1L178.6 400.1L190 404.5L201.4 401.4L212.8 402.6L224.2 407.8L235.6 409.8L247 412.8L258.4 416.7L269.9 417.2L281.3 418L292.7 417.4L304.1 423.8L315.5 427.6L326.9 421.7L338.3 421.7L349.7 417.5L361.1 409.2L372.5 408.8L383.9 404L395.3 404.9L406.7 392.8L418.1 384.8L429.5 383.1L440.9 375.9L452.4 376.5L463.8 374.4L475.2 373L486.6 366.8L498 363.2L509.4 344.3L520.8 345L532.2 333.6L543.6 333.7L555 343.1L566.4 333.9L577.8 349.1L589.2 352.4L600.6 348.8L612 344.1L623.4 346.4L634.9 345.8L646.3 339.8L657.7 340.4L669.1 330.7L680.5 328.3L691.9 322.1L703.3 351.7L714.7 349L726.1 358.3L726.1 378.7L714.7 378.6L703.3 378L691.9 349.5L680.5 353.5L669.1 354L657.7 362.6L646.3 366.6L634.9 372.3L623.4 375.1L612 376.7L600.6 374.9L589.2 378.2L577.8 379.3L566.4 373.1L555 374.8L543.6 375.4L532.2 376L520.8 383.1L509.4 381.2L498 388.8L486.6 392.3L475.2 393.7L463.8 396.2L452.4 397.8L440.9 399.2L429.5 404.7L418.1 406.7L406.7 414.7L395.3 428L383.9 427.5L372.5 430.1L361.1 431.5L349.7 440.5L338.3 442.8L326.9 441.2L315.5 451L304.1 444.1L292.7 439.4L281.3 441.7L269.9 438.6L258.4 438.5L247 434.7L235.6 431L224.2 431.6L212.8 428.5L201.4 428.5L190 430.9L178.6 428.1L167.2 423.3L155.8 428.1L144.4 434.2L133 436.7L121.6 448.1L110.2 450.5L98.8 452.2L87.4 455.1L75.9 460.7" fill="#883039" fill-opacity="0.8"></path><path class="Gas-area" stroke-linecap="round" d="M75.9 430L87.4 425.3L98.8 424.9L110.2 424.9L121.6 421.8L133 409.2L144.4 409.3L155.8 401.5L167.2 393L178.6 395L190 399L201.4 386.4L212.8 378L224.2 384.7L235.6 394.5L247 398.9L258.4 399.6L269.9 386L281.3 384.2L292.7 374L304.1 368.4L315.5 360.8L326.9 357.1L338.3 350.8L349.7 344.7L361.1 337.9L372.5 331.2L383.9 321.9L395.3 324.8L406.7 317.8L418.1 313.2L429.5 301.5L440.9 288L452.4 299L463.8 285.7L475.2 278.7L486.6 267.3L498 268.2L509.4 272.7L520.8 279.6L532.2 273.3L543.6 272.4L555 275.5L566.4 271.2L577.8 284.6L589.2 282.2L600.6 284.3L612 272.5L623.4 270.8L634.9 261.9L646.3 262.7L657.7 263.4L669.1 250.5L680.5 256.1L691.9 245L703.3 278.3L714.7 286.9L726.1 300.2L726.1 358.3L714.7 349L703.3 351.7L691.9 322.1L680.5 328.3L669.1 330.7L657.7 340.4L646.3 339.8L634.9 345.8L623.4 346.4L612 344.1L600.6 348.8L589.2 352.4L577.8 349.1L566.4 333.9L555 343.1L543.6 333.7L532.2 333.6L520.8 345L509.4 344.3L498 363.2L486.6 366.8L475.2 373L463.8 374.4L452.4 376.5L440.9 375.9L429.5 383.1L418.1 384.8L406.7 392.8L395.3 404.9L383.9 404L372.5 408.8L361.1 409.2L349.7 417.5L338.3 421.7L326.9 421.7L315.5 427.6L304.1 423.8L292.7 417.4L281.3 418L269.9 417.2L258.4 416.7L247 412.8L235.6 409.8L224.2 407.8L212.8 402.6L201.4 401.4L190 404.5L178.6 400.1L167.2 396.1L155.8 404.1L144.4 410.8L133 410.4L121.6 421.8L110.2 424.9L98.8 424.9L87.4 425.3L75.9 430" fill="#3b25b1" fill-opacity="0.8"></path><path class="Hydropower-area" stroke-linecap="round" d="M75.9 382.5L87.4 374L98.8 371.7L110.2 369L121.6 366.6L133 349.1L144.4 341L155.8 329.1L167.2 321.4L178.6 322.9L190 319.9L201.4 312.9L212.8 308.2L224.2 310.4L235.6 307L247 307L258.4 306.2L269.9 299.2L281.3 290.5L292.7 277.3L304.1 274.9L315.5 256L326.9 253L338.3 241.8L349.7 237.6L361.1 227.8L372.5 222.6L383.9 221.8L395.3 213.3L406.7 195.2L418.1 182.5L429.5 177.2L440.9 177.6L452.4 178.8L463.8 177L475.2 162.8L486.6 165.1L498 151.7L509.4 162.8L520.8 153.7L532.2 166.1L543.6 164.8L555 168.2L566.4 170.4L577.8 176.1L589.2 172L600.6 173.1L612 171.7L623.4 170.1L634.9 156.2L646.3 156.7L657.7 152L669.1 143L680.5 144.6L691.9 136.7L703.3 176.1L714.7 185.1L726.1 190.3L726.1 300.2L714.7 286.9L703.3 278.3L691.9 245L680.5 256.1L669.1 250.5L657.7 263.4L646.3 262.7L634.9 261.9L623.4 270.8L612 272.5L600.6 284.3L589.2 282.2L577.8 284.6L566.4 271.2L555 275.5L543.6 272.4L532.2 273.3L520.8 279.6L509.4 272.7L498 268.2L486.6 267.3L475.2 278.7L463.8 285.7L452.4 299L440.9 288L429.5 301.5L418.1 313.2L406.7 317.8L395.3 324.8L383.9 321.9L372.5 331.2L361.1 337.9L349.7 344.7L338.3 350.8L326.9 357.1L315.5 360.8L304.1 368.4L292.7 374L281.3 384.2L269.9 386L258.4 399.6L247 398.9L235.6 394.5L224.2 384.7L212.8 378L201.4 386.4L190 399L178.6 395L167.2 393L155.8 401.5L144.4 409.3L133 409.2L121.6 421.8L110.2 424.9L98.8 424.9L87.4 425.3L75.9 430" fill="#B13507" fill-opacity="0.8"></path><path class="Wind-area" stroke-linecap="round" d="M75.9 382.5L87.4 374L98.8 371.7L110.2 369L121.6 366.6L133 349.1L144.4 341L155.8 329.1L167.2 321.4L178.6 322.9L190 319.9L201.4 312.9L212.8 308.2L224.2 310.4L235.6 307L247 307L258.4 306.2L269.9 299.2L281.3 290.5L292.7 277.3L304.1 274.9L315.5 256L326.9 253L338.3 241.8L349.7 237.6L361.1 227.8L372.5 222.6L383.9 221.8L395.3 213.3L406.7 195.2L418.1 182.5L429.5 177.2L440.9 177.6L452.4 178.7L463.8 176.8L475.2 162.2L486.6 164.4L498 151L509.4 162.1L520.8 152L532.2 163.3L543.6 162L555 164L566.4 165.7L577.8 169.5L589.2 164.8L600.6 164.5L612 162.6L623.4 161.3L634.9 146.6L646.3 146.5L657.7 142L669.1 134.1L680.5 135.8L691.9 127.2L703.3 166.3L714.7 174L726.1 178.3L726.1 190.3L714.7 185.1L703.3 176.1L691.9 136.7L680.5 144.6L669.1 143L657.7 152L646.3 156.7L634.9 156.2L623.4 170.1L612 171.7L600.6 173.1L589.2 172L577.8 176.1L566.4 170.4L555 168.2L543.6 164.8L532.2 166.1L520.8 153.7L509.4 162.8L498 151.7L486.6 165.1L475.2 162.8L463.8 177L452.4 178.8L440.9 177.6L429.5 177.2L418.1 182.5L406.7 195.2L395.3 213.3L383.9 221.8L372.5 222.6L361.1 227.8L349.7 237.6L338.3 241.8L326.9 253L315.5 256L304.1 274.9L292.7 277.3L281.3 290.5L269.9 299.2L258.4 306.2L247 307L235.6 307L224.2 310.4L212.8 308.2L201.4 312.9L190 319.9L178.6 322.9L167.2 321.4L155.8 329.1L144.4 341L133 349.1L121.6 366.6L110.2 369L98.8 371.7L87.4 374L75.9 382.5" fill="#B16214" fill-opacity="0.8"></path><path class="Solar-area" stroke-linecap="round" d="M75.9 382.5L87.4 374L98.8 371.7L110.2 369L121.6 366.6L133 349.1L144.4 341L155.8 329.1L167.2 321.4L178.6 322.9L190 319.9L201.4 312.9L212.8 308.2L224.2 310.4L235.6 307L247 307L258.4 306.2L269.9 299.2L281.3 290.5L292.7 277.3L304.1 274.9L315.5 256L326.9 253L338.3 241.8L349.7 237.6L361.1 227.8L372.5 222.6L383.9 221.8L395.3 213.3L406.7 195.2L418.1 182.5L429.5 177.2L440.9 177.6L452.4 178.7L463.8 176.8L475.2 162.2L486.6 164.4L498 151L509.4 162.1L520.8 152L532.2 163.3L543.6 162L555 164L566.4 165.6L577.8 169.5L589.2 164.7L600.6 164.4L612 162.6L623.4 161.2L634.9 146.5L646.3 146.4L657.7 141.7L669.1 133.8L680.5 135.4L691.9 126.6L703.3 165.7L714.7 173.1L726.1 177.2L726.1 178.3L714.7 174L703.3 166.3L691.9 127.2L680.5 135.8L669.1 134.1L657.7 142L646.3 146.5L634.9 146.6L623.4 161.3L612 162.6L600.6 164.5L589.2 164.8L577.8 169.5L566.4 165.7L555 164L543.6 162L532.2 163.3L520.8 152L509.4 162.1L498 151L486.6 164.4L475.2 162.2L463.8 176.8L452.4 178.7L440.9 177.6L429.5 177.2L418.1 182.5L406.7 195.2L395.3 213.3L383.9 221.8L372.5 222.6L361.1 227.8L349.7 237.6L338.3 241.8L326.9 253L315.5 256L304.1 274.9L292.7 277.3L281.3 290.5L269.9 299.2L258.4 306.2L247 307L235.6 307L224.2 310.4L212.8 308.2L201.4 312.9L190 319.9L178.6 322.9L167.2 321.4L155.8 329.1L144.4 341L133 349.1L121.6 366.6L110.2 369L98.8 371.7L87.4 374L75.9 382.5" fill="#970046" fill-opacity="0.8"></path><path class="Biofuels-area" stroke-linecap="round" d="M75.9 382.5L87.4 374L98.8 371.7L110.2 369L121.6 366.6L133 349.1L144.4 341L155.8 329.1L167.2 321.4L178.6 322.9L190 319.9L201.4 312.9L212.8 308.2L224.2 310.4L235.6 307L247 307L258.4 306.2L269.9 299.2L281.3 290.5L292.7 277.3L304.1 274.9L315.5 256L326.9 253L338.3 241.8L349.7 237.6L361.1 227.8L372.5 222.6L383.9 221.8L395.3 213.3L406.7 195.2L418.1 182.5L429.5 177.2L440.9 177.6L452.4 178.7L463.8 176.8L475.2 162.2L486.6 164.4L498 151L509.4 162.1L520.8 152L532.2 163.3L543.6 162L555 164L566.4 165.6L577.8 169.4L589.2 164.7L600.6 164.3L612 162.5L623.4 161.2L634.9 146.5L646.3 146.3L657.7 141.7L669.1 133.7L680.5 135.3L691.9 126.5L703.3 165.5L714.7 173L726.1 177.1L726.1 177.2L714.7 173.1L703.3 165.7L691.9 126.6L680.5 135.4L669.1 133.8L657.7 141.7L646.3 146.4L634.9 146.5L623.4 161.2L612 162.6L600.6 164.4L589.2 164.7L577.8 169.5L566.4 165.6L555 164L543.6 162L532.2 163.3L520.8 152L509.4 162.1L498 151L486.6 164.4L475.2 162.2L463.8 176.8L452.4 178.7L440.9 177.6L429.5 177.2L418.1 182.5L406.7 195.2L395.3 213.3L383.9 221.8L372.5 222.6L361.1 227.8L349.7 237.6L338.3 241.8L326.9 253L315.5 256L304.1 274.9L292.7 277.3L281.3 290.5L269.9 299.2L258.4 306.2L247 307L235.6 307L224.2 310.4L212.8 308.2L201.4 312.9L190 319.9L178.6 322.9L167.2 321.4L155.8 329.1L144.4 341L133 349.1L121.6 366.6L110.2 369L98.8 371.7L87.4 374L75.9 382.5" fill="#D73C50" fill-opacity="0.8"></path><path class="Other-renewables-area" stroke-linecap="round" d="M75.9 376.3L87.4 367.8L98.8 366.5L110.2 363.1L121.6 360.5L133 343.3L144.4 335.3L155.8 323.4L167.2 315.7L178.6 313.1L190 309.9L201.4 303.1L212.8 298.8L224.2 300.9L235.6 298L247 297.6L258.4 297L269.9 289.8L281.3 281L292.7 267.1L304.1 265.3L315.5 246.1L326.9 243.1L338.3 231.9L349.7 225.5L361.1 213.9L372.5 207.9L383.9 207.4L395.3 198.2L406.7 180.7L418.1 168.2L429.5 163.3L440.9 163.2L452.4 163.2L463.8 160.2L475.2 144.7L486.6 148L498 135.5L509.4 147.1L520.8 136.5L532.2 146L543.6 143.6L555 144.9L566.4 143.8L577.8 144.8L589.2 135.8L600.6 134.2L612 131.4L623.4 128.7L634.9 110.8L646.3 108.4L657.7 104L669.1 96.1L680.5 98.3L691.9 89.3L703.3 128.2L714.7 135.2L726.1 139.1L726.1 177.1L714.7 173L703.3 165.5L691.9 126.5L680.5 135.3L669.1 133.7L657.7 141.7L646.3 146.3L634.9 146.5L623.4 161.2L612 162.5L600.6 164.3L589.2 164.7L577.8 169.4L566.4 165.6L555 164L543.6 162L532.2 163.3L520.8 152L509.4 162.1L498 151L486.6 164.4L475.2 162.2L463.8 176.8L452.4 178.7L440.9 177.6L429.5 177.2L418.1 182.5L406.7 195.2L395.3 213.3L383.9 221.8L372.5 222.6L361.1 227.8L349.7 237.6L338.3 241.8L326.9 253L315.5 256L304.1 274.9L292.7 277.3L281.3 290.5L269.9 299.2L258.4 306.2L247 307L235.6 307L224.2 310.4L212.8 308.2L201.4 312.9L190 319.9L178.6 322.9L167.2 321.4L155.8 329.1L144.4 341L133 349.1L121.6 366.6L110.2 369L98.8 371.7L87.4 374L75.9 382.5" fill="#00295B" fill-opacity="0.8"></path><path class="Oil-border" stroke-linecap="round" d="M75.9 460.7L87.4 455.1L98.8 452.2L110.2 450.5L121.6 448.1L133 436.7L144.4 434.2L155.8 428.1L167.2 423.3L178.6 428.1L190 430.9L201.4 428.5L212.8 428.5L224.2 431.6L235.6 431L247 434.7L258.4 438.5L269.9 438.6L281.3 441.7L292.7 439.4L304.1 444.1L315.5 451L326.9 441.2L338.3 442.8L349.7 440.5L361.1 431.5L372.5 430.1L383.9 427.5L395.3 428L406.7 414.7L418.1 406.7L429.5 404.7L440.9 399.2L452.4 397.8L463.8 396.2L475.2 393.7L486.6 392.3L498 388.8L509.4 381.2L520.8 383.1L532.2 376L543.6 375.4L555 374.8L566.4 373.1L577.8 379.3L589.2 378.2L600.6 374.9L612 376.7L623.4 375.1L634.9 372.3L646.3 366.6L657.7 362.6L669.1 354L680.5 353.5L691.9 349.5L703.3 378L714.7 378.6L726.1 378.7" stroke="rgb(64, 89, 131)" stroke-opacity="0.7" stroke-width="0.5" fill="none"></path><path class="Coal-border" stroke-linecap="round" d="M75.9 430L87.4 425.3L98.8 424.9L110.2 424.9L121.6 421.8L133 410.4L144.4 410.8L155.8 404.1L167.2 396.1L178.6 400.1L190 404.5L201.4 401.4L212.8 402.6L224.2 407.8L235.6 409.8L247 412.8L258.4 416.7L269.9 417.2L281.3 418L292.7 417.4L304.1 423.8L315.5 427.6L326.9 421.7L338.3 421.7L349.7 417.5L361.1 409.2L372.5 408.8L383.9 404L395.3 404.9L406.7 392.8L418.1 384.8L429.5 383.1L440.9 375.9L452.4 376.5L463.8 374.4L475.2 373L486.6 366.8L498 363.2L509.4 344.3L520.8 345L532.2 333.6L543.6 333.7L555 343.1L566.4 333.9L577.8 349.1L589.2 352.4L600.6 348.8L612 344.1L623.4 346.4L634.9 345.8L646.3 339.8L657.7 340.4L669.1 330.7L680.5 328.3L691.9 322.1L703.3 351.7L714.7 349L726.1 358.3" stroke="rgb(114, 40, 48)" stroke-opacity="0.7" stroke-width="0.5" fill="none"></path><path class="Gas-border" stroke-linecap="round" d="M75.9 430L87.4 425.3L98.8 424.9L110.2 424.9L121.6 421.8L133 409.2L144.4 409.3L155.8 401.5L167.2 393L178.6 395L190 399L201.4 386.4L212.8 378L224.2 384.7L235.6 394.5L247 398.9L258.4 399.6L269.9 386L281.3 384.2L292.7 374L304.1 368.4L315.5 360.8L326.9 357.1L338.3 350.8L349.7 344.7L361.1 337.9L372.5 331.2L383.9 321.9L395.3 324.8L406.7 317.8L418.1 313.2L429.5 301.5L440.9 288L452.4 299L463.8 285.7L475.2 278.7L486.6 267.3L498 268.2L509.4 272.7L520.8 279.6L532.2 273.3L543.6 272.4L555 275.5L566.4 271.2L577.8 284.6L589.2 282.2L600.6 284.3L612 272.5L623.4 270.8L634.9 261.9L646.3 262.7L657.7 263.4L669.1 250.5L680.5 256.1L691.9 245L703.3 278.3L714.7 286.9L726.1 300.2" stroke="rgb(49, 31, 148)" stroke-opacity="0.7" stroke-width="0.5" fill="none"></path><path class="Hydropower-border" stroke-linecap="round" d="M75.9 382.5L87.4 374L98.8 371.7L110.2 369L121.6 366.6L133 349.1L144.4 341L155.8 329.1L167.2 321.4L178.6 322.9L190 319.9L201.4 312.9L212.8 308.2L224.2 310.4L235.6 307L247 307L258.4 306.2L269.9 299.2L281.3 290.5L292.7 277.3L304.1 274.9L315.5 256L326.9 253L338.3 241.8L349.7 237.6L361.1 227.8L372.5 222.6L383.9 221.8L395.3 213.3L406.7 195.2L418.1 182.5L429.5 177.2L440.9 177.6L452.4 178.8L463.8 177L475.2 162.8L486.6 165.1L498 151.7L509.4 162.8L520.8 153.7L532.2 166.1L543.6 164.8L555 168.2L566.4 170.4L577.8 176.1L589.2 172L600.6 173.1L612 171.7L623.4 170.1L634.9 156.2L646.3 156.7L657.7 152L669.1 143L680.5 144.6L691.9 136.7L703.3 176.1L714.7 185.1L726.1 190.3" stroke="rgb(148, 44, 6)" stroke-opacity="0.7" stroke-width="0.5" fill="none"></path><path class="Wind-border" stroke-linecap="round" d="M75.9 382.5L87.4 374L98.8 371.7L110.2 369L121.6 366.6L133 349.1L144.4 341L155.8 329.1L167.2 321.4L178.6 322.9L190 319.9L201.4 312.9L212.8 308.2L224.2 310.4L235.6 307L247 307L258.4 306.2L269.9 299.2L281.3 290.5L292.7 277.3L304.1 274.9L315.5 256L326.9 253L338.3 241.8L349.7 237.6L361.1 227.8L372.5 222.6L383.9 221.8L395.3 213.3L406.7 195.2L418.1 182.5L429.5 177.2L440.9 177.6L452.4 178.7L463.8 176.8L475.2 162.2L486.6 164.4L498 151L509.4 162.1L520.8 152L532.2 163.3L543.6 162L555 164L566.4 165.7L577.8 169.5L589.2 164.8L600.6 164.5L612 162.6L623.4 161.3L634.9 146.6L646.3 146.5L657.7 142L669.1 134.1L680.5 135.8L691.9 127.2L703.3 166.3L714.7 174L726.1 178.3" stroke="rgb(148, 82, 17)" stroke-opacity="0.7" stroke-width="0.5" fill="none"></path><path class="Solar-border" stroke-linecap="round" d="M75.9 382.5L87.4 374L98.8 371.7L110.2 369L121.6 366.6L133 349.1L144.4 341L155.8 329.1L167.2 321.4L178.6 322.9L190 319.9L201.4 312.9L212.8 308.2L224.2 310.4L235.6 307L247 307L258.4 306.2L269.9 299.2L281.3 290.5L292.7 277.3L304.1 274.9L315.5 256L326.9 253L338.3 241.8L349.7 237.6L361.1 227.8L372.5 222.6L383.9 221.8L395.3 213.3L406.7 195.2L418.1 182.5L429.5 177.2L440.9 177.6L452.4 178.7L463.8 176.8L475.2 162.2L486.6 164.4L498 151L509.4 162.1L520.8 152L532.2 163.3L543.6 162L555 164L566.4 165.6L577.8 169.5L589.2 164.7L600.6 164.4L612 162.6L623.4 161.2L634.9 146.5L646.3 146.4L657.7 141.7L669.1 133.8L680.5 135.4L691.9 126.6L703.3 165.7L714.7 173.1L726.1 177.2" stroke="rgb(126, 0, 59)" stroke-opacity="0.7" stroke-width="0.5" fill="none"></path><path class="Biofuels-border" stroke-linecap="round" d="M75.9 382.5L87.4 374L98.8 371.7L110.2 369L121.6 366.6L133 349.1L144.4 341L155.8 329.1L167.2 321.4L178.6 322.9L190 319.9L201.4 312.9L212.8 308.2L224.2 310.4L235.6 307L247 307L258.4 306.2L269.9 299.2L281.3 290.5L292.7 277.3L304.1 274.9L315.5 256L326.9 253L338.3 241.8L349.7 237.6L361.1 227.8L372.5 222.6L383.9 221.8L395.3 213.3L406.7 195.2L418.1 182.5L429.5 177.2L440.9 177.6L452.4 178.7L463.8 176.8L475.2 162.2L486.6 164.4L498 151L509.4 162.1L520.8 152L532.2 163.3L543.6 162L555 164L566.4 165.6L577.8 169.4L589.2 164.7L600.6 164.3L612 162.5L623.4 161.2L634.9 146.5L646.3 146.3L657.7 141.7L669.1 133.7L680.5 135.3L691.9 126.5L703.3 165.5L714.7 173L726.1 177.1" stroke="rgb(180, 50, 67)" stroke-opacity="0.7" stroke-width="0.5" fill="none"></path><path class="Other-renewables-border" stroke-linecap="round" d="M75.9 376.3L87.4 367.8L98.8 366.5L110.2 363.1L121.6 360.5L133 343.3L144.4 335.3L155.8 323.4L167.2 315.7L178.6 313.1L190 309.9L201.4 303.1L212.8 298.8L224.2 300.9L235.6 298L247 297.6L258.4 297L269.9 289.8L281.3 281L292.7 267.1L304.1 265.3L315.5 246.1L326.9 243.1L338.3 231.9L349.7 225.5L361.1 213.9L372.5 207.9L383.9 207.4L395.3 198.2L406.7 180.7L418.1 168.2L429.5 163.3L440.9 163.2L452.4 163.2L463.8 160.2L475.2 144.7L486.6 148L498 135.5L509.4 147.1L520.8 136.5L532.2 146L543.6 143.6L555 144.9L566.4 143.8L577.8 144.8L589.2 135.8L600.6 134.2L612 131.4L623.4 128.7L634.9 110.8L646.3 108.4L657.7 104L669.1 96.1L680.5 98.3L691.9 89.3L703.3 128.2L714.7 135.2L726.1 139.1" stroke="rgb(0, 34, 76)" stroke-opacity="0.7" stroke-width="0.5" fill="none"></path></g></g></g></g><g class="SourcesFooter" style="fill:#5b5b5b"><text x="16.0" y="562.7" style="font-size:13.5px;line-height:1.2"><tspan x="16" y="562.7"><tspan style="font-weight:700">Data source:</tspan> Energy Institute - Statistical Review of World Energy (2023)</tspan></text><text x="16.0" y="580.9" style="font-size:13.5px;line-height:1.2"><tspan x="16" y="580.9"><tspan style="font-weight:700">Note:</tspan> Other renewables include geothermal, biomass and waste energy.</tspan></text><text font-size="13.50" x="615.3" y="562.7"><tspan x="615.3" y="562.695"><a target="_blank" style="fill: #5b5b5b;  text-decoration: underline;" href="https://ourworldindata.org/energy">OurWorldInData.org/energy</a> | <a target="_blank" style="fill: #5b5b5b;  text-decoration: underline;" href="https://creativecommons.org/licenses/by/4.0/">CC BY</a></tspan></text></g><line x1="16" y1="600" x2="834" y2="600" stroke="#e7e7e7"></line><g transform="translate(15, 616)"><text x="0.0" y="12.0" style="font-size:12.375px;fill:#5b5b5b;line-height:1.2"><tspan x="0" y="12.0"><tspan style="font-weight:700">1.</tspan> <tspan style="font-weight:700">Primary energy</tspan>: Primary energy is the energy available as resources – such as the fuels burnt in power plants – before it has been transformed.</tspan><tspan x="0" y="26.9">This relates to the coal before it has been burned, the uranium, or the barrels of oil. Primary energy includes energy that the end user needs, in the</tspan><tspan x="0" y="41.7">form of electricity, transport and heating, plus inefficiencies and energy that is lost when raw resources are transformed into a usable form. You can</tspan><tspan x="0" y="56.6">read more on the different ways of measuring energy in our article.</tspan></text><text x="0.0" y="79.4" style="font-size:12.375px;fill:#5b5b5b;line-height:1.2"><tspan x="0" y="79.4"><tspan style="font-weight:700">2.</tspan> <tspan style="font-weight:700">Substitution method</tspan>: The ‘substitution method’ is used by researchers to correct primary energy consumption for efficiency losses experienced</tspan><tspan x="0" y="94.3">by fossil fuels. It tries to adjust non-fossil energy sources to the inputs that would be needed if it was generated from fossil fuels. It assumes that</tspan><tspan x="0" y="109.1">wind and solar electricity is as inefficient as coal or gas. To do this, energy generation from non-fossil sources are divided by a standard ‘thermal</tspan><tspan x="0" y="124.0">efficiency factor’ – typically around 0.4 Nuclear power is also adjusted despite it also experiencing thermal losses in a power plant. Since it’s</tspan><tspan x="0" y="138.8">reported in terms of electricity output, we need to do this adjustment to calculate its equivalent input value. You can read more about this adjustment</tspan><tspan x="0" y="153.7">in our article.</tspan></text></g></svg>