<svg xmlns="http://www.w3.org/2000/svg" version="1.1" style="font-family:Lato, &#x27;Helvetica Neue&#x27;, Helvetica, Arial, &#x27;Liberation Sans&#x27;, sans-serif;font-size:18px;background-color:white;text-rendering:geometricPrecision;-webkit-font-smoothing:antialiased" width="850" height="788.5" viewBox="0 0 850 788.5"><defs><style>@import url(https://ourworldindata.org/fonts.css)</style></defs><defs><pattern id="noDataPattern" patternUnits="userSpaceOnUse" width="4" height="4" patternTransform="rotate(-45 2 2)"><path d="M -1,2 l 6,0" stroke="#ccc" stroke-width="0.7"></path></pattern></defs><rect class="background-fill" fill="white" width="850" height="788.5"></rect><g class="HeaderView"><g transform="translate(769, 16) scale(1)"><svg className="owidLogo" xmlns="http://www.w3.org/2000/svg" width="65" height="36" viewBox="0 0 65 36"  fill="none"><path fill="#002147" d="M0 0h64.8v36H0z"/><path fill="#CE261E" d="M0 33.3h64.8V36H0z"/><path fill="#fff" d="M13.796 10.575c0 .636-.106 1.226-.318 1.77a4.193 4.193 0 0 1-.894 1.404 4.084 4.084 0 0 1-1.386.93c-.54.22-1.138.33-1.794.33-.656 0-1.256-.11-1.8-.33a4.149 4.149 0 0 1-1.392-.93 4.193 4.193 0 0 1-.894-1.404A4.833 4.833 0 0 1 5 10.575c0-.636.106-1.224.318-1.764a4.18 4.18 0 0 1 .894-1.41 4.076 4.076 0 0 1 1.392-.924 4.684 4.684 0 0 1 1.8-.336c.656 0 1.254.112 1.794.336.54.224 1.002.534 1.386.93.384.392.682.86.894 1.404.212.54.318 1.128.318 1.764Zm-1.656 0c0-.476-.064-.902-.192-1.278a2.671 2.671 0 0 0-.54-.966 2.332 2.332 0 0 0-.864-.606 2.94 2.94 0 0 0-1.14-.21c-.424 0-.806.07-1.146.21-.34.14-.63.342-.87.606a2.742 2.742 0 0 0-.546.966 3.955 3.955 0 0 0-.192 1.278c0 .476.064.904.192 1.284.128.376.31.696.546.96.24.26.53.46.87.6.34.14.722.21 1.146.21.424 0 .804-.07 1.14-.21.34-.14.628-.34.864-.6.236-.264.416-.584.54-.96a4.01 4.01 0 0 0 .192-1.284ZM16.104 8.757v3.912c0 .376.086.668.258.876.176.204.438.306.786.306.256 0 .496-.056.72-.168a2.58 2.58 0 0 0 .636-.474V8.757h1.482v6.156h-.906c-.192 0-.318-.09-.378-.27l-.102-.492a4.65 4.65 0 0 1-.396.354 2.577 2.577 0 0 1-.438.27 2.35 2.35 0 0 1-.498.168 2.345 2.345 0 0 1-.57.066c-.336 0-.634-.056-.894-.168a1.821 1.821 0 0 1-.648-.486 2.157 2.157 0 0 1-.402-.738 3.233 3.233 0 0 1-.132-.948V8.757h1.482ZM21.328 14.913V8.757h.87c.152 0 .258.028.318.084.06.056.1.152.12.288l.09.744c.22-.38.478-.68.774-.9.296-.22.628-.33.996-.33.304 0 .556.07.756.21l-.192 1.11c-.012.072-.038.124-.078.156a.278.278 0 0 1-.162.042 1.01 1.01 0 0 1-.246-.042 1.646 1.646 0 0 0-.414-.042c-.308 0-.572.086-.792.258-.22.168-.406.416-.558.744v3.834h-1.482ZM27.347 6.237h1.356a.57.57 0 0 1 .348.102c.096.064.16.152.192.264l1.476 5.19c.036.128.068.268.096.42.032.148.062.306.09.474a5.968 5.968 0 0 1 .228-.894l1.704-5.19a.575.575 0 0 1 .186-.252.543.543 0 0 1 .348-.114h.474a.57.57 0 0 1 .348.102.497.497 0 0 1 .192.264l1.692 5.19c.088.256.164.54.228.852.028-.156.056-.306.084-.45.032-.144.064-.278.096-.402l1.476-5.19c.028-.1.09-.186.186-.258a.563.563 0 0 1 .348-.108h1.266l-2.694 8.676h-1.458l-1.896-5.928-.078-.246a9.504 9.504 0 0 1-.072-.282c-.024.1-.05.194-.078.282-.024.088-.048.17-.072.246l-1.914 5.928H30.04l-2.694-8.676ZM42.771 8.661c.46 0 .876.074 1.248.222.376.148.696.358.96.63s.468.604.612.996c.144.392.216.83.216 1.314 0 .488-.072.928-.216 1.32a2.85 2.85 0 0 1-.612 1.002 2.653 2.653 0 0 1-.96.636 3.35 3.35 0 0 1-1.248.222c-.46 0-.878-.074-1.254-.222a2.712 2.712 0 0 1-.966-.636 2.922 2.922 0 0 1-.618-1.002 3.807 3.807 0 0 1-.216-1.32c0-.484.072-.922.216-1.314.148-.392.354-.724.618-.996.268-.272.59-.482.966-.63a3.397 3.397 0 0 1 1.254-.222Zm0 5.202c.512 0 .89-.172 1.134-.516.248-.344.372-.848.372-1.512s-.124-1.17-.372-1.518c-.244-.348-.622-.522-1.134-.522-.52 0-.904.176-1.152.528-.248.348-.372.852-.372 1.512s.124 1.164.372 1.512c.248.344.632.516 1.152.516ZM46.723 14.913V8.757h.87c.152 0 .258.028.318.084.06.056.1.152.12.288l.09.744c.22-.38.478-.68.774-.9.296-.22.628-.33.996-.33.304 0 .556.07.756.21l-.192 1.11c-.012.072-.038.124-.078.156a.278.278 0 0 1-.162.042 1.01 1.01 0 0 1-.246-.042 1.646 1.646 0 0 0-.414-.042c-.308 0-.572.086-.792.258-.22.168-.406.416-.558.744v3.834h-1.482ZM52.96 5.997v8.916h-1.482V5.997h1.482ZM58.732 14.913c-.192 0-.318-.09-.378-.27l-.12-.594a3.68 3.68 0 0 1-.402.39c-.14.116-.292.216-.456.3-.16.084-.334.148-.522.192a2.372 2.372 0 0 1-.6.072c-.336 0-.644-.07-.924-.21a2.098 2.098 0 0 1-.726-.606 3.033 3.033 0 0 1-.468-.99 5.072 5.072 0 0 1-.162-1.344c0-.456.062-.88.186-1.272s.302-.732.534-1.02c.232-.288.51-.512.834-.672a2.384 2.384 0 0 1 1.092-.246 2.103 2.103 0 0 1 1.536.606V5.997h1.482v8.916h-.906Zm-1.974-1.086c.308 0 .57-.064.786-.192.216-.128.42-.31.612-.546v-2.76a1.452 1.452 0 0 0-.552-.432 1.597 1.597 0 0 0-.636-.126c-.224 0-.428.042-.612.126a1.21 1.21 0 0 0-.462.384c-.124.168-.22.384-.288.648-.068.26-.102.568-.102.924 0 .36.028.666.084.918.06.248.144.452.252.612.108.156.24.27.396.342.156.068.33.102.522.102ZM16.331 20.757v6.156H14.85v-6.156h1.481Zm.223-1.794a.844.844 0 0 1-.078.36.963.963 0 0 1-.21.294.995.995 0 0 1-.3.204.963.963 0 0 1-.372.072.948.948 0 0 1-.367-.072 1.018 1.018 0 0 1-.498-.498.963.963 0 0 1 0-.732.995.995 0 0 1 .205-.3.929.929 0 0 1 .293-.198.899.899 0 0 1 .738 0 .912.912 0 0 1 .3.198.943.943 0 0 1 .288.672ZM17.771 26.913v-6.156h.906c.192 0 .318.09.378.27l.102.486a2.934 2.934 0 0 1 .828-.618c.156-.076.322-.134.498-.174.176-.04.368-.06.576-.06.336 0 .634.058.894.174.26.112.476.272.648.48.176.204.308.45.396.738.092.284.138.598.138.942v3.918h-1.482v-3.918c0-.376-.088-.666-.264-.87-.172-.208-.432-.312-.78-.312-.256 0-.496.058-.72.174a2.58 2.58 0 0 0-.636.474v4.452h-1.482ZM34.22 22.575c0 .636-.106 1.22-.318 1.752-.212.532-.51.99-.894 1.374a4 4 0 0 1-1.386.894 4.87 4.87 0 0 1-1.794.318h-3.312v-8.676h3.312a4.79 4.79 0 0 1 1.794.324 4 4 0 0 1 1.386.894c.384.38.682.836.894 1.368.212.532.318 1.116.318 1.752Zm-1.65 0c0-.476-.064-.902-.192-1.278a2.68 2.68 0 0 0-.546-.96 2.332 2.332 0 0 0-.864-.606 2.94 2.94 0 0 0-1.14-.21h-1.686v6.108h1.686c.424 0 .804-.07 1.14-.21.34-.14.628-.34.864-.6a2.75 2.75 0 0 0 .546-.96 4.01 4.01 0 0 0 .192-1.284ZM39.98 26.913h-.665c-.14 0-.25-.02-.33-.06-.08-.044-.14-.13-.18-.258l-.132-.438c-.156.14-.31.264-.462.372a2.804 2.804 0 0 1-.462.264c-.16.072-.33.126-.51.162-.18.036-.38.054-.6.054-.26 0-.5-.034-.72-.102a1.618 1.618 0 0 1-.57-.318 1.448 1.448 0 0 1-.366-.522 1.852 1.852 0 0 1-.132-.726c0-.232.06-.46.18-.684.124-.228.328-.432.612-.612.284-.184.662-.336 1.134-.456.472-.12 1.058-.188 1.758-.204v-.36c0-.412-.088-.716-.264-.912-.172-.2-.424-.3-.756-.3a1.837 1.837 0 0 0-1.02.276c-.116.068-.224.13-.324.186a.664.664 0 0 1-.33.084.429.429 0 0 1-.258-.078.614.614 0 0 1-.174-.192l-.27-.474c.708-.648 1.562-.972 2.562-.972.36 0 .68.06.96.18.284.116.524.28.72.492.196.208.344.458.444.75.104.292.156.612.156.96v3.888Zm-2.88-.924c.153 0 .293-.014.42-.042.129-.028.249-.07.36-.126.117-.056.227-.124.33-.204.109-.084.217-.182.325-.294v-1.038c-.432.02-.794.058-1.086.114-.288.052-.52.12-.696.204a.923.923 0 0 0-.378.294.664.664 0 0 0-.108.366c0 .26.076.446.228.558.156.112.358.168.606.168ZM43.22 27.01c-.532 0-.942-.15-1.23-.45-.288-.305-.432-.723-.432-1.255v-3.438h-.624a.31.31 0 0 1-.21-.078c-.056-.052-.084-.13-.084-.234v-.588l.99-.162.312-1.68a.302.302 0 0 1 .108-.186.365.365 0 0 1 .222-.066h.768v1.938h1.62v1.056h-1.62v3.336c0 .192.048.342.144.45a.488.488 0 0 0 .384.162c.092 0 .168-.01.228-.03.064-.024.118-.048.162-.072.048-.024.09-.046.126-.066a.194.194 0 0 1 .108-.036.16.16 0 0 1 .108.036c.028.02.058.052.09.096l.444.72c-.216.18-.464.316-.744.408a2.77 2.77 0 0 1-.87.138ZM50.423 26.913h-.666c-.14 0-.25-.02-.33-.06-.08-.044-.14-.13-.18-.258l-.132-.438c-.156.14-.31.264-.462.372a2.804 2.804 0 0 1-.462.264c-.16.072-.33.126-.51.162-.18.036-.38.054-.6.054-.26 0-.5-.034-.72-.102a1.618 1.618 0 0 1-.57-.318 1.448 1.448 0 0 1-.366-.522 1.852 1.852 0 0 1-.132-.726c0-.232.06-.46.18-.684.124-.228.328-.432.612-.612.284-.184.662-.336 1.134-.456.472-.12 1.058-.188 1.758-.204v-.36c0-.412-.088-.716-.264-.912-.172-.2-.424-.3-.756-.3a1.837 1.837 0 0 0-1.02.276c-.116.068-.224.13-.324.186a.664.664 0 0 1-.33.084.429.429 0 0 1-.258-.078.614.614 0 0 1-.174-.192l-.27-.474c.708-.648 1.562-.972 2.562-.972.36 0 .68.06.96.18.284.116.524.28.72.492.196.208.344.458.444.75.104.292.156.612.156.96v3.888Zm-2.88-.924c.152 0 .292-.014.42-.042.128-.028.248-.07.36-.126.116-.056.226-.124.33-.204.108-.084.216-.182.324-.294v-1.038c-.432.02-.794.058-1.086.114-.288.052-.52.12-.696.204a.923.923 0 0 0-.378.294.664.664 0 0 0-.108.366c0 .26.076.446.228.558.156.112.358.168.606.168Z"/></svg></g><a href="https://ourworldindata.org/grapher/share-energy-source-sub?country=~NZL" style="font-family:&#x27;Playfair Display&#x27;, Georgia, &#x27;Times New Roman&#x27;, &#x27;Liberation Serif&#x27;, serif" target="_blank" rel="noopener"><text font-size="24.75" font-weight="500" x="16.0" y="40.0" fill="#5b5b5b"><tspan x="16" y="40.0075">Share of energy consumption by source, New Zealand</tspan></text></a><text x="16.0" y="63.9" style="font-size:14.625px;line-height:1.2" fill="#5b5b5b"><tspan x="16" y="63.9">Measured as a percentage of <tspan>primary energy<tspan style="font-feature-settings:&quot;sups&quot;">¹</tspan></tspan>, using the <tspan>substitution method<tspan style="font-feature-settings:&quot;sups&quot;">²</tspan></tspan>.</tspan></text></g><g style="pointer-events:none"><g class="LineChart"><defs><clipPath id="boundsClip-8"><rect x="38.135000000000005" y="73.25" width="838" height="488.55"></rect></clipPath></defs><rect x="16" y="83.25" width="818" height="468.55" fill="none"></rect><g class="DualAxisView"><g class="HorizontalAxis"><line x1="48.1" y1="531.3" x2="48.1" y2="536.3" stroke="#999" stroke-width="1"></line><line x1="692.1" y1="531.3" x2="692.1" y2="536.3" stroke="#999" stroke-width="1"></line><line x1="172" y1="531.3" x2="172" y2="536.3" stroke="#999" stroke-width="1"></line><line x1="295.8" y1="531.3" x2="295.8" y2="536.3" stroke="#999" stroke-width="1"></line><line x1="419.6" y1="531.3" x2="419.6" y2="536.3" stroke="#999" stroke-width="1"></line><line x1="543.5" y1="531.3" x2="543.5" y2="536.3" stroke="#999" stroke-width="1"></line><text x="48.135000000000005" y="549.8" fill="#5b5b5b" text-anchor="start" font-size="13.5">1970</text><text x="692.0799999999999" y="549.8" fill="#5b5b5b" text-anchor="end" font-size="13.5">2022</text><text x="172" y="549.8" fill="#5b5b5b" text-anchor="middle" font-size="13.5">1980</text><text x="295.8" y="549.8" fill="#5b5b5b" text-anchor="middle" font-size="13.5">1990</text><text x="419.6" y="549.8" fill="#5b5b5b" text-anchor="middle" font-size="13.5">2000</text><text x="543.5" y="549.8" fill="#5b5b5b" text-anchor="middle" font-size="13.5">2010</text></g><g class="VerticalAxis"><text x="43.14" y="531.3" dy=".32em" text-anchor="end" fill="#5b5b5b" font-size="13.5">0%</text><text x="43.14" y="434.2" dy=".32em" text-anchor="end" fill="#5b5b5b" font-size="13.5">10%</text><text x="43.14" y="337" dy=".32em" text-anchor="end" fill="#5b5b5b" font-size="13.5">20%</text><text x="43.14" y="239.9" dy=".32em" text-anchor="end" fill="#5b5b5b" font-size="13.5">30%</text><text x="43.14" y="142.7" dy=".32em" text-anchor="end" fill="#5b5b5b" font-size="13.5">40%</text></g><g class="AxisGridLines horizontalLines"><line x1="48.14" y1="531.3" x2="692.08" y2="531.3" stroke="#999" stroke-width="1"></line><line x1="48.14" y1="434.2" x2="692.08" y2="434.2" stroke="#ddd" stroke-width="1" stroke-dasharray="3,2"></line><line x1="48.14" y1="337" x2="692.08" y2="337" stroke="#ddd" stroke-width="1" stroke-dasharray="3,2"></line><line x1="48.14" y1="239.9" x2="692.08" y2="239.9" stroke="#ddd" stroke-width="1" stroke-dasharray="3,2"></line><line x1="48.14" y1="142.7" x2="692.08" y2="142.7" stroke="#ddd" stroke-width="1" stroke-dasharray="3,2"></line></g></g><g clip-path="url(#boundsClip-8)"><g class="LineLabels" style="cursor:default"><g class="legendMark"><g class="indicator"><path d="M696.0799999999999,182.3 H709.5799999999999 V182.3 H723.0799999999999" stroke="#999" stroke-width="0.5" fill="none"></path></g><rect x="692.0799999999999" y="175.55" width="51.47" height="13.5" fill="#fff" opacity="0"></rect><text font-size="13.50" font-weight="400" x="727.1" y="187.3" fill="#c15065"><tspan x="727.0799999999999" y="187.29500000000002">Oil</tspan></text></g><g class="legendMark"><g class="indicator"><path d="M696.0799999999999,245.9 H709.5799999999999 V245.9 H723.0799999999999" stroke="#999" stroke-width="0.5" fill="none"></path></g><rect x="692.0799999999999" y="239.15" width="107.9" height="13.5" fill="#fff" opacity="0"></rect><text font-size="13.50" font-weight="400" x="727.1" y="250.9" fill="#286bbb"><tspan x="727.0799999999999" y="250.895">Hydropower</tspan></text></g><g class="legendMark"><g class="indicator"><path d="M696.0799999999999,380.3 H709.5799999999999 V380.3 H723.0799999999999" stroke="#999" stroke-width="0.5" fill="none"></path></g><rect x="692.0799999999999" y="373.55" width="59.84" height="13.5" fill="#fff" opacity="0"></rect><text font-size="13.50" font-weight="400" x="727.1" y="385.3" fill="#6d3e91"><tspan x="727.0799999999999" y="385.295">Gas</tspan></text></g><g class="legendMark"><g class="indicator"><path d="M696.0799999999999,432.8 H709.5799999999999 V432.8 H723.0799999999999" stroke="#999" stroke-width="0.5" fill="none"></path></g><rect x="692.0799999999999" y="426.05" width="141.92000000000002" height="13.5" fill="#fff" opacity="0"></rect><text font-size="13.50" font-weight="400" x="727.1" y="437.8" fill="#578145"><tspan x="727.0799999999999" y="437.795">Other renewables</tspan></text></g><g class="legendMark"><g class="indicator"><path d="M696.0799999999999,478.3 H709.5799999999999 V478.3 H723.0799999999999" stroke="#999" stroke-width="0.5" fill="none"></path></g><rect x="692.0799999999999" y="471.55" width="62.81" height="13.5" fill="#fff" opacity="0"></rect><text font-size="13.50" font-weight="400" x="727.1" y="483.3" fill="#883039"><tspan x="727.0799999999999" y="483.295">Coal</tspan></text></g><g class="legendMark"><g class="indicator"><path d="M696.0799999999999,500.2 H702.8299999999999 V493.54999999999995 H723.0799999999999" stroke="#999" stroke-width="0.5" fill="none"></path></g><rect x="692.0799999999999" y="486.79999999999995" width="65.78" height="13.5" fill="#fff" opacity="0"></rect><text font-size="13.50" font-weight="400" x="727.1" y="498.5" fill="#00295b"><tspan x="727.0799999999999" y="498.54499999999996">Wind</tspan></text></g><g class="legendMark"><g class="indicator"><path d="M696.0799999999999,528.3 H709.5799999999999 V509.04999999999995 H723.0799999999999" stroke="#999" stroke-width="0.5" fill="none"></path></g><rect x="692.0799999999999" y="502.29999999999995" width="66.59" height="13.5" fill="#fff" opacity="0"></rect><text font-size="13.50" font-weight="400" x="727.1" y="514.0" fill="#c4523e"><tspan x="727.0799999999999" y="514.045">Solar</tspan></text></g><g class="legendMark"><g class="indicator"><path d="M696.0799999999999,531.3 H716.3299999999999 V524.55 H723.0799999999999" stroke="#999" stroke-width="0.5" fill="none"></path></g><rect x="692.0799999999999" y="517.8" width="81.575" height="13.5" fill="#fff" opacity="0"></rect><text font-size="13.50" font-weight="400" x="727.1" y="529.5" fill="#00847e"><tspan x="727.0799999999999" y="529.545">Nuclear</tspan></text></g></g><g class="Lines"><rect x="48" y="89" width="644" height="442" fill="rgba(255,255,255,0)" opacity="0"></rect><g><path stroke-linecap="round" stroke-linejoin="round" stroke="#ddd" d="M48.1 498.1L60.5 500.1L72.9 502L85.3 503.4L97.7 483.5L110.1 483.6L122.4 486.2L134.8 488.7L147.2 487.8L159.6 490.9L172 489L184.4 489.7L196.7 490.5L209.1 491.7L221.5 491.1L233.9 493.7L246.3 495.2L258.7 495.6L271 496.9L283.4 490.1L295.8 486.1L308.2 484.5L320.6 485.4L333 484.6L345.3 489L357.7 491.1L370.1 492.7L382.5 491.5L394.9 488.2L407.3 485.5L419.6 485.1L432 487.7L444.4 491.4L456.8 491.5L469.2 491.3L481.6 485.6L493.9 483L506.3 480.9L518.7 474.1L531.1 466.3L543.5 456.9L555.9 454.1L568.2 452.3L580.6 449.1L593 445.2L605.4 440.2L617.8 441.8L630.2 443.7L642.5 444.5L654.9 445.8L667.3 437.2L679.7 434L692.1 432.8" fill="none" stroke-width="1"></path></g><g><path stroke-linecap="round" stroke-linejoin="round" stroke="#ddd" d="M48.1 524.8L60.5 523.4L72.9 517.9L85.3 516.3L97.7 506.3L110.1 504.6L122.4 462L134.8 419.7L147.2 425.7L159.6 462.2L172 468.4L184.4 454.3L196.7 395.7L209.1 389.6L221.5 359.9L233.9 314.3L246.3 288.4L258.7 298.9L271 286.6L283.4 285.4L295.8 299.7L308.2 284.4L320.6 270.4L333 284.3L345.3 312L357.7 329.6L370.1 304.6L382.5 287.1L394.9 316.1L407.3 287.3L419.6 282.7L432 266.6L444.4 287L456.8 341.2L469.2 362.8L481.6 371.7L493.9 370.3L506.3 352.9L518.7 366.5L531.1 361.4L543.5 350.5L555.9 365.8L568.2 349L580.6 340.5L593 328.7L605.4 346.4L617.8 348.5L630.2 344.7L642.5 362.1L654.9 354.6L667.3 346.1L679.7 371.5L692.1 380.3" fill="none" stroke-width="1"></path></g><g><path stroke-linecap="round" stroke-linejoin="round" stroke="#ddd" d="M97.7 531.3L110.1 531.3L122.4 531.3L134.8 531.3L147.2 531.3L159.6 531.3L172 531.3L184.4 531.3L196.7 531.3L209.1 531.3L221.5 531.3L233.9 531.3L246.3 531.3L258.7 531.3L271 531.3L283.4 531.3L295.8 531.3L308.2 531.3L320.6 531.3L333 531.3L345.3 531.3L357.7 531.3L370.1 531.2L382.5 531.1L394.9 531L407.3 530.8L419.6 529.8L432 529.6L444.4 529.4L456.8 529.5L469.2 527L481.6 523.8L493.9 523.8L506.3 520.2L518.7 518.7L531.1 513.8L543.5 512.5L555.9 509.1L568.2 508L580.6 509L593 508.1L605.4 506.8L617.8 507.4L630.2 510.5L642.5 510.7L654.9 509.4L667.3 506.8L679.7 502.8L692.1 500.2" fill="none" stroke-width="1"></path></g><g><path stroke-linecap="round" stroke-linejoin="round" stroke="#ddd" d="M48.1 187.3L60.5 158.2L72.9 160.5L85.3 178.7L97.7 181.3L110.1 153.3L122.4 191.1L134.8 214.7L147.2 191.1L159.6 136L172 117.1L184.4 111.6L196.7 153.5L209.1 139L221.5 149.4L233.9 164.7L246.3 149.9L258.7 156.9L271 154.9L283.4 169.8L295.8 174.1L308.2 185.5L320.6 213.3L333 187.4L345.3 173L357.7 163.3L370.1 186.3L382.5 224.9L394.9 197.7L407.3 232L419.6 225.6L432 259.3L444.4 231.6L456.8 239.5L469.2 206.4L481.6 247.7L493.9 248.3L506.3 248.3L518.7 266.2L531.1 245L543.5 247.8L555.9 246.3L568.2 274.9L580.6 276.8L593 276L605.4 276.9L617.8 266.8L630.2 280.8L642.5 270.3L654.9 283.1L667.3 273.2L679.7 269.7L692.1 245.9" fill="none" stroke-width="1"></path></g><g><path stroke-linecap="round" stroke-linejoin="round" stroke="#ddd" d="M48.1 531.3L60.5 531.3L72.9 531.3L85.3 531.3L97.7 531.3L110.1 531.3L122.4 531.3L134.8 531.3L147.2 531.3L159.6 531.3L172 531.3L184.4 531.3L196.7 531.3L209.1 531.3L221.5 531.3L233.9 531.3L246.3 531.3L258.7 531.3L271 531.3L283.4 531.3L295.8 531.3L308.2 531.3L320.6 531.3L333 531.3L345.3 531.3L357.7 531.3L370.1 531.3L382.5 531.3L394.9 531.3L407.3 531.3L419.6 531.3L432 531.3L444.4 531.3L456.8 531.3L469.2 531.3L481.6 531.3L493.9 531.3L506.3 531.3L518.7 531.3L531.1 531.3L543.5 531.3L555.9 531.3L568.2 531.3L580.6 531.3L593 531.3L605.4 531.3L617.8 531.3L630.2 531.3L642.5 531.3L654.9 531.3L667.3 531.3L679.7 531.3L692.1 531.3" fill="none" stroke-width="1"></path></g><g><path stroke-linecap="round" stroke-linejoin="round" stroke="#ddd" d="M48.1 531.3L60.5 531.3L72.9 531.3L85.3 531.3L97.7 531.3L110.1 531.3L122.4 531.3L134.8 531.3L147.2 531.3L159.6 531.3L172 531.3L184.4 531.3L196.7 531.3L209.1 531.3L221.5 531.3L233.9 531.3L246.3 531.3L258.7 531.3L271 531.3L283.4 531.3L295.8 531.3L308.2 531.3L320.6 531.3L333 531.3L345.3 531.3L357.7 531.3L370.1 531.3L382.5 531.3L394.9 531.3L407.3 531.3L419.6 531.3L432 531.3L444.4 531.3L456.8 531.3L469.2 531.3L481.6 531.3L493.9 531.3L506.3 531.3L518.7 531.3L531.1 531.3L543.5 531.3L555.9 531.3L568.2 531.2L580.6 531.2L593 531.1L605.4 530.9L617.8 530.7L630.2 530.5L642.5 530.3L654.9 530.1L667.3 529.6L679.7 529.1L692.1 528.3" fill="none" stroke-width="1"></path></g><g><path stroke-linecap="round" stroke-linejoin="round" stroke="#ddd" d="M48.1 380.6L60.5 403.3L72.9 408.4L85.3 397.5L97.7 395.3L110.1 405.4L122.4 405.7L134.8 414.1L147.2 422.1L159.6 435.3L172 432.7L184.4 433.4L196.7 438.4L209.1 432.2L221.5 444.4L233.9 451.6L246.3 446.3L258.7 461.1L271 458.3L283.4 453.6L295.8 458.7L308.2 463.5L320.6 456.7L333 460L345.3 467.4L357.7 469.6L370.1 471.3L382.5 466.6L394.9 472.3L407.3 471.4L419.6 476.9L432 463.3L444.4 465.6L456.8 433.4L469.2 433L481.6 419.1L493.9 421.5L506.3 447.8L518.7 428L531.1 451.6L543.5 464.9L555.9 464.4L568.2 448.5L580.6 458.8L593 467.3L605.4 467.1L617.8 478.7L630.2 477L642.5 472.4L654.9 468.5L667.3 464.8L679.7 455.4L692.1 478.3" fill="none" stroke-width="1"></path></g><g><path stroke-linecap="round" stroke-linejoin="round" stroke="#ddd" d="M48.1 94.2L60.5 100.2L72.9 96.3L85.3 89.3L97.7 118.6L110.1 138.3L122.4 140.1L134.8 147.8L147.2 158.4L159.6 160.7L172 177.9L184.4 196.1L196.7 207.1L209.1 232.5L221.5 240.4L233.9 260.8L246.3 305.4L258.7 272.5L271 288.4L283.4 286.2L295.8 266.5L308.2 267.2L320.6 259.3L333 268.8L345.3 243.8L357.7 231.6L370.1 230.3L382.5 215.2L394.9 211.1L407.3 209.4L419.6 216.4L432 210L444.4 211.4L456.8 181.2L469.2 195.9L481.6 168.5L493.9 169.4L506.3 166.4L518.7 163.1L531.1 178.3L543.5 184L555.9 177.1L568.2 184.1L580.6 182.5L593 191.4L605.4 179.6L617.8 173.9L630.2 160.6L642.5 157.5L654.9 156.4L667.3 190.4L679.7 185.5L692.1 182.3" fill="none" stroke-width="1"></path></g><g><path fill="none" stroke-linecap="butt" stroke-linejoin="round" stroke="#fff" stroke-width="2.5" d="M48.1 498.1L60.5 500.1L72.9 502L85.3 503.4L97.7 483.5L110.1 483.6L122.4 486.2L134.8 488.7L147.2 487.8L159.6 490.9L172 489L184.4 489.7L196.7 490.5L209.1 491.7L221.5 491.1L233.9 493.7L246.3 495.2L258.7 495.6L271 496.9L283.4 490.1L295.8 486.1L308.2 484.5L320.6 485.4L333 484.6L345.3 489L357.7 491.1L370.1 492.7L382.5 491.5L394.9 488.2L407.3 485.5L419.6 485.1L432 487.7L444.4 491.4L456.8 491.5L469.2 491.3L481.6 485.6L493.9 483L506.3 480.9L518.7 474.1L531.1 466.3L543.5 456.9L555.9 454.1L568.2 452.3L580.6 449.1L593 445.2L605.4 440.2L617.8 441.8L630.2 443.7L642.5 444.5L654.9 445.8L667.3 437.2L679.7 434L692.1 432.8"></path><polyline points="48.10,498.10 60.50,500.10 72.90,502.00 85.30,503.40 97.70,483.50 110.10,483.60 122.40,486.20 134.80,488.70 147.20,487.80 159.60,490.90 172.00,489.00 184.40,489.70 196.70,490.50 209.10,491.70 221.50,491.10 233.90,493.70 246.30,495.20 258.70,495.60 271.00,496.90 283.40,490.10 295.80,486.10 308.20,484.50 320.60,485.40 333.00,484.60 345.30,489.00 357.70,491.10 370.10,492.70 382.50,491.50 394.90,488.20 407.30,485.50 419.60,485.10 432.00,487.70 444.40,491.40 456.80,491.50 469.20,491.30 481.60,485.60 493.90,483.00 506.30,480.90 518.70,474.10 531.10,466.30 543.50,456.90 555.90,454.10 568.20,452.30 580.60,449.10 593.00,445.20 605.40,440.20 617.80,441.80 630.20,443.70 642.50,444.50 654.90,445.80 667.30,437.20 679.70,434.00 692.10,432.80" stroke-linejoin="round" stroke-width="1.5" stroke="#578145" fill="none" stroke-linecap="butt"></polyline><g><circle cx="48.1" cy="498.1" r="1.8" fill="#578145"></circle><circle cx="60.5" cy="500.1" r="1.8" fill="#578145"></circle><circle cx="72.9" cy="502" r="1.8" fill="#578145"></circle><circle cx="85.3" cy="503.4" r="1.8" fill="#578145"></circle><circle cx="97.7" cy="483.5" r="1.8" fill="#578145"></circle><circle cx="110.1" cy="483.6" r="1.8" fill="#578145"></circle><circle cx="122.4" cy="486.2" r="1.8" fill="#578145"></circle><circle cx="134.8" cy="488.7" r="1.8" fill="#578145"></circle><circle cx="147.2" cy="487.8" r="1.8" fill="#578145"></circle><circle cx="159.6" cy="490.9" r="1.8" fill="#578145"></circle><circle cx="172" cy="489" r="1.8" fill="#578145"></circle><circle cx="184.4" cy="489.7" r="1.8" fill="#578145"></circle><circle cx="196.7" cy="490.5" r="1.8" fill="#578145"></circle><circle cx="209.1" cy="491.7" r="1.8" fill="#578145"></circle><circle cx="221.5" cy="491.1" r="1.8" fill="#578145"></circle><circle cx="233.9" cy="493.7" r="1.8" fill="#578145"></circle><circle cx="246.3" cy="495.2" r="1.8" fill="#578145"></circle><circle cx="258.7" cy="495.6" r="1.8" fill="#578145"></circle><circle cx="271" cy="496.9" r="1.8" fill="#578145"></circle><circle cx="283.4" cy="490.1" r="1.8" fill="#578145"></circle><circle cx="295.8" cy="486.1" r="1.8" fill="#578145"></circle><circle cx="308.2" cy="484.5" r="1.8" fill="#578145"></circle><circle cx="320.6" cy="485.4" r="1.8" fill="#578145"></circle><circle cx="333" cy="484.6" r="1.8" fill="#578145"></circle><circle cx="345.3" cy="489" r="1.8" fill="#578145"></circle><circle cx="357.7" cy="491.1" r="1.8" fill="#578145"></circle><circle cx="370.1" cy="492.7" r="1.8" fill="#578145"></circle><circle cx="382.5" cy="491.5" r="1.8" fill="#578145"></circle><circle cx="394.9" cy="488.2" r="1.8" fill="#578145"></circle><circle cx="407.3" cy="485.5" r="1.8" fill="#578145"></circle><circle cx="419.6" cy="485.1" r="1.8" fill="#578145"></circle><circle cx="432" cy="487.7" r="1.8" fill="#578145"></circle><circle cx="444.4" cy="491.4" r="1.8" fill="#578145"></circle><circle cx="456.8" cy="491.5" r="1.8" fill="#578145"></circle><circle cx="469.2" cy="491.3" r="1.8" fill="#578145"></circle><circle cx="481.6" cy="485.6" r="1.8" fill="#578145"></circle><circle cx="493.9" cy="483" r="1.8" fill="#578145"></circle><circle cx="506.3" cy="480.9" r="1.8" fill="#578145"></circle><circle cx="518.7" cy="474.1" r="1.8" fill="#578145"></circle><circle cx="531.1" cy="466.3" r="1.8" fill="#578145"></circle><circle cx="543.5" cy="456.9" r="1.8" fill="#578145"></circle><circle cx="555.9" cy="454.1" r="1.8" fill="#578145"></circle><circle cx="568.2" cy="452.3" r="1.8" fill="#578145"></circle><circle cx="580.6" cy="449.1" r="1.8" fill="#578145"></circle><circle cx="593" cy="445.2" r="1.8" fill="#578145"></circle><circle cx="605.4" cy="440.2" r="1.8" fill="#578145"></circle><circle cx="617.8" cy="441.8" r="1.8" fill="#578145"></circle><circle cx="630.2" cy="443.7" r="1.8" fill="#578145"></circle><circle cx="642.5" cy="444.5" r="1.8" fill="#578145"></circle><circle cx="654.9" cy="445.8" r="1.8" fill="#578145"></circle><circle cx="667.3" cy="437.2" r="1.8" fill="#578145"></circle><circle cx="679.7" cy="434" r="1.8" fill="#578145"></circle><circle cx="692.1" cy="432.8" r="1.8" fill="#578145"></circle></g></g><g><path fill="none" stroke-linecap="butt" stroke-linejoin="round" stroke="#fff" stroke-width="2.5" d="M48.1 524.8L60.5 523.4L72.9 517.9L85.3 516.3L97.7 506.3L110.1 504.6L122.4 462L134.8 419.7L147.2 425.7L159.6 462.2L172 468.4L184.4 454.3L196.7 395.7L209.1 389.6L221.5 359.9L233.9 314.3L246.3 288.4L258.7 298.9L271 286.6L283.4 285.4L295.8 299.7L308.2 284.4L320.6 270.4L333 284.3L345.3 312L357.7 329.6L370.1 304.6L382.5 287.1L394.9 316.1L407.3 287.3L419.6 282.7L432 266.6L444.4 287L456.8 341.2L469.2 362.8L481.6 371.7L493.9 370.3L506.3 352.9L518.7 366.5L531.1 361.4L543.5 350.5L555.9 365.8L568.2 349L580.6 340.5L593 328.7L605.4 346.4L617.8 348.5L630.2 344.7L642.5 362.1L654.9 354.6L667.3 346.1L679.7 371.5L692.1 380.3"></path><polyline points="48.10,524.80 60.50,523.40 72.90,517.90 85.30,516.30 97.70,506.30 110.10,504.60 122.40,462.00 134.80,419.70 147.20,425.70 159.60,462.20 172.00,468.40 184.40,454.30 196.70,395.70 209.10,389.60 221.50,359.90 233.90,314.30 246.30,288.40 258.70,298.90 271.00,286.60 283.40,285.40 295.80,299.70 308.20,284.40 320.60,270.40 333.00,284.30 345.30,312.00 357.70,329.60 370.10,304.60 382.50,287.10 394.90,316.10 407.30,287.30 419.60,282.70 432.00,266.60 444.40,287.00 456.80,341.20 469.20,362.80 481.60,371.70 493.90,370.30 506.30,352.90 518.70,366.50 531.10,361.40 543.50,350.50 555.90,365.80 568.20,349.00 580.60,340.50 593.00,328.70 605.40,346.40 617.80,348.50 630.20,344.70 642.50,362.10 654.90,354.60 667.30,346.10 679.70,371.50 692.10,380.30" stroke-linejoin="round" stroke-width="1.5" stroke="#6d3e91" fill="none" stroke-linecap="butt"></polyline><g><circle cx="48.1" cy="524.8" r="1.8" fill="#6d3e91"></circle><circle cx="60.5" cy="523.4" r="1.8" fill="#6d3e91"></circle><circle cx="72.9" cy="517.9" r="1.8" fill="#6d3e91"></circle><circle cx="85.3" cy="516.3" r="1.8" fill="#6d3e91"></circle><circle cx="97.7" cy="506.3" r="1.8" fill="#6d3e91"></circle><circle cx="110.1" cy="504.6" r="1.8" fill="#6d3e91"></circle><circle cx="122.4" cy="462" r="1.8" fill="#6d3e91"></circle><circle cx="134.8" cy="419.7" r="1.8" fill="#6d3e91"></circle><circle cx="147.2" cy="425.7" r="1.8" fill="#6d3e91"></circle><circle cx="159.6" cy="462.2" r="1.8" fill="#6d3e91"></circle><circle cx="172" cy="468.4" r="1.8" fill="#6d3e91"></circle><circle cx="184.4" cy="454.3" r="1.8" fill="#6d3e91"></circle><circle cx="196.7" cy="395.7" r="1.8" fill="#6d3e91"></circle><circle cx="209.1" cy="389.6" r="1.8" fill="#6d3e91"></circle><circle cx="221.5" cy="359.9" r="1.8" fill="#6d3e91"></circle><circle cx="233.9" cy="314.3" r="1.8" fill="#6d3e91"></circle><circle cx="246.3" cy="288.4" r="1.8" fill="#6d3e91"></circle><circle cx="258.7" cy="298.9" r="1.8" fill="#6d3e91"></circle><circle cx="271" cy="286.6" r="1.8" fill="#6d3e91"></circle><circle cx="283.4" cy="285.4" r="1.8" fill="#6d3e91"></circle><circle cx="295.8" cy="299.7" r="1.8" fill="#6d3e91"></circle><circle cx="308.2" cy="284.4" r="1.8" fill="#6d3e91"></circle><circle cx="320.6" cy="270.4" r="1.8" fill="#6d3e91"></circle><circle cx="333" cy="284.3" r="1.8" fill="#6d3e91"></circle><circle cx="345.3" cy="312" r="1.8" fill="#6d3e91"></circle><circle cx="357.7" cy="329.6" r="1.8" fill="#6d3e91"></circle><circle cx="370.1" cy="304.6" r="1.8" fill="#6d3e91"></circle><circle cx="382.5" cy="287.1" r="1.8" fill="#6d3e91"></circle><circle cx="394.9" cy="316.1" r="1.8" fill="#6d3e91"></circle><circle cx="407.3" cy="287.3" r="1.8" fill="#6d3e91"></circle><circle cx="419.6" cy="282.7" r="1.8" fill="#6d3e91"></circle><circle cx="432" cy="266.6" r="1.8" fill="#6d3e91"></circle><circle cx="444.4" cy="287" r="1.8" fill="#6d3e91"></circle><circle cx="456.8" cy="341.2" r="1.8" fill="#6d3e91"></circle><circle cx="469.2" cy="362.8" r="1.8" fill="#6d3e91"></circle><circle cx="481.6" cy="371.7" r="1.8" fill="#6d3e91"></circle><circle cx="493.9" cy="370.3" r="1.8" fill="#6d3e91"></circle><circle cx="506.3" cy="352.9" r="1.8" fill="#6d3e91"></circle><circle cx="518.7" cy="366.5" r="1.8" fill="#6d3e91"></circle><circle cx="531.1" cy="361.4" r="1.8" fill="#6d3e91"></circle><circle cx="543.5" cy="350.5" r="1.8" fill="#6d3e91"></circle><circle cx="555.9" cy="365.8" r="1.8" fill="#6d3e91"></circle><circle cx="568.2" cy="349" r="1.8" fill="#6d3e91"></circle><circle cx="580.6" cy="340.5" r="1.8" fill="#6d3e91"></circle><circle cx="593" cy="328.7" r="1.8" fill="#6d3e91"></circle><circle cx="605.4" cy="346.4" r="1.8" fill="#6d3e91"></circle><circle cx="617.8" cy="348.5" r="1.8" fill="#6d3e91"></circle><circle cx="630.2" cy="344.7" r="1.8" fill="#6d3e91"></circle><circle cx="642.5" cy="362.1" r="1.8" fill="#6d3e91"></circle><circle cx="654.9" cy="354.6" r="1.8" fill="#6d3e91"></circle><circle cx="667.3" cy="346.1" r="1.8" fill="#6d3e91"></circle><circle cx="679.7" cy="371.5" r="1.8" fill="#6d3e91"></circle><circle cx="692.1" cy="380.3" r="1.8" fill="#6d3e91"></circle></g></g><g><path fill="none" stroke-linecap="butt" stroke-linejoin="round" stroke="#fff" stroke-width="2.5" d="M97.7 531.3L110.1 531.3L122.4 531.3L134.8 531.3L147.2 531.3L159.6 531.3L172 531.3L184.4 531.3L196.7 531.3L209.1 531.3L221.5 531.3L233.9 531.3L246.3 531.3L258.7 531.3L271 531.3L283.4 531.3L295.8 531.3L308.2 531.3L320.6 531.3L333 531.3L345.3 531.3L357.7 531.3L370.1 531.2L382.5 531.1L394.9 531L407.3 530.8L419.6 529.8L432 529.6L444.4 529.4L456.8 529.5L469.2 527L481.6 523.8L493.9 523.8L506.3 520.2L518.7 518.7L531.1 513.8L543.5 512.5L555.9 509.1L568.2 508L580.6 509L593 508.1L605.4 506.8L617.8 507.4L630.2 510.5L642.5 510.7L654.9 509.4L667.3 506.8L679.7 502.8L692.1 500.2"></path><polyline points="97.70,531.30 110.10,531.30 122.40,531.30 134.80,531.30 147.20,531.30 159.60,531.30 172.00,531.30 184.40,531.30 196.70,531.30 209.10,531.30 221.50,531.30 233.90,531.30 246.30,531.30 258.70,531.30 271.00,531.30 283.40,531.30 295.80,531.30 308.20,531.30 320.60,531.30 333.00,531.30 345.30,531.30 357.70,531.30 370.10,531.20 382.50,531.10 394.90,531.00 407.30,530.80 419.60,529.80 432.00,529.60 444.40,529.40 456.80,529.50 469.20,527.00 481.60,523.80 493.90,523.80 506.30,520.20 518.70,518.70 531.10,513.80 543.50,512.50 555.90,509.10 568.20,508.00 580.60,509.00 593.00,508.10 605.40,506.80 617.80,507.40 630.20,510.50 642.50,510.70 654.90,509.40 667.30,506.80 679.70,502.80 692.10,500.20" stroke-linejoin="round" stroke-width="1.5" stroke="#00295b" fill="none" stroke-linecap="butt"></polyline><g><circle cx="97.7" cy="531.3" r="1.8" fill="#00295b"></circle><circle cx="110.1" cy="531.3" r="1.8" fill="#00295b"></circle><circle cx="122.4" cy="531.3" r="1.8" fill="#00295b"></circle><circle cx="134.8" cy="531.3" r="1.8" fill="#00295b"></circle><circle cx="147.2" cy="531.3" r="1.8" fill="#00295b"></circle><circle cx="159.6" cy="531.3" r="1.8" fill="#00295b"></circle><circle cx="172" cy="531.3" r="1.8" fill="#00295b"></circle><circle cx="184.4" cy="531.3" r="1.8" fill="#00295b"></circle><circle cx="196.7" cy="531.3" r="1.8" fill="#00295b"></circle><circle cx="209.1" cy="531.3" r="1.8" fill="#00295b"></circle><circle cx="221.5" cy="531.3" r="1.8" fill="#00295b"></circle><circle cx="233.9" cy="531.3" r="1.8" fill="#00295b"></circle><circle cx="246.3" cy="531.3" r="1.8" fill="#00295b"></circle><circle cx="258.7" cy="531.3" r="1.8" fill="#00295b"></circle><circle cx="271" cy="531.3" r="1.8" fill="#00295b"></circle><circle cx="283.4" cy="531.3" r="1.8" fill="#00295b"></circle><circle cx="295.8" cy="531.3" r="1.8" fill="#00295b"></circle><circle cx="308.2" cy="531.3" r="1.8" fill="#00295b"></circle><circle cx="320.6" cy="531.3" r="1.8" fill="#00295b"></circle><circle cx="333" cy="531.3" r="1.8" fill="#00295b"></circle><circle cx="345.3" cy="531.3" r="1.8" fill="#00295b"></circle><circle cx="357.7" cy="531.3" r="1.8" fill="#00295b"></circle><circle cx="370.1" cy="531.2" r="1.8" fill="#00295b"></circle><circle cx="382.5" cy="531.1" r="1.8" fill="#00295b"></circle><circle cx="394.9" cy="531" r="1.8" fill="#00295b"></circle><circle cx="407.3" cy="530.8" r="1.8" fill="#00295b"></circle><circle cx="419.6" cy="529.8" r="1.8" fill="#00295b"></circle><circle cx="432" cy="529.6" r="1.8" fill="#00295b"></circle><circle cx="444.4" cy="529.4" r="1.8" fill="#00295b"></circle><circle cx="456.8" cy="529.5" r="1.8" fill="#00295b"></circle><circle cx="469.2" cy="527" r="1.8" fill="#00295b"></circle><circle cx="481.6" cy="523.8" r="1.8" fill="#00295b"></circle><circle cx="493.9" cy="523.8" r="1.8" fill="#00295b"></circle><circle cx="506.3" cy="520.2" r="1.8" fill="#00295b"></circle><circle cx="518.7" cy="518.7" r="1.8" fill="#00295b"></circle><circle cx="531.1" cy="513.8" r="1.8" fill="#00295b"></circle><circle cx="543.5" cy="512.5" r="1.8" fill="#00295b"></circle><circle cx="555.9" cy="509.1" r="1.8" fill="#00295b"></circle><circle cx="568.2" cy="508" r="1.8" fill="#00295b"></circle><circle cx="580.6" cy="509" r="1.8" fill="#00295b"></circle><circle cx="593" cy="508.1" r="1.8" fill="#00295b"></circle><circle cx="605.4" cy="506.8" r="1.8" fill="#00295b"></circle><circle cx="617.8" cy="507.4" r="1.8" fill="#00295b"></circle><circle cx="630.2" cy="510.5" r="1.8" fill="#00295b"></circle><circle cx="642.5" cy="510.7" r="1.8" fill="#00295b"></circle><circle cx="654.9" cy="509.4" r="1.8" fill="#00295b"></circle><circle cx="667.3" cy="506.8" r="1.8" fill="#00295b"></circle><circle cx="679.7" cy="502.8" r="1.8" fill="#00295b"></circle><circle cx="692.1" cy="500.2" r="1.8" fill="#00295b"></circle></g></g><g><path fill="none" stroke-linecap="butt" stroke-linejoin="round" stroke="#fff" stroke-width="2.5" d="M48.1 187.3L60.5 158.2L72.9 160.5L85.3 178.7L97.7 181.3L110.1 153.3L122.4 191.1L134.8 214.7L147.2 191.1L159.6 136L172 117.1L184.4 111.6L196.7 153.5L209.1 139L221.5 149.4L233.9 164.7L246.3 149.9L258.7 156.9L271 154.9L283.4 169.8L295.8 174.1L308.2 185.5L320.6 213.3L333 187.4L345.3 173L357.7 163.3L370.1 186.3L382.5 224.9L394.9 197.7L407.3 232L419.6 225.6L432 259.3L444.4 231.6L456.8 239.5L469.2 206.4L481.6 247.7L493.9 248.3L506.3 248.3L518.7 266.2L531.1 245L543.5 247.8L555.9 246.3L568.2 274.9L580.6 276.8L593 276L605.4 276.9L617.8 266.8L630.2 280.8L642.5 270.3L654.9 283.1L667.3 273.2L679.7 269.7L692.1 245.9"></path><polyline points="48.10,187.30 60.50,158.20 72.90,160.50 85.30,178.70 97.70,181.30 110.10,153.30 122.40,191.10 134.80,214.70 147.20,191.10 159.60,136.00 172.00,117.10 184.40,111.60 196.70,153.50 209.10,139.00 221.50,149.40 233.90,164.70 246.30,149.90 258.70,156.90 271.00,154.90 283.40,169.80 295.80,174.10 308.20,185.50 320.60,213.30 333.00,187.40 345.30,173.00 357.70,163.30 370.10,186.30 382.50,224.90 394.90,197.70 407.30,232.00 419.60,225.60 432.00,259.30 444.40,231.60 456.80,239.50 469.20,206.40 481.60,247.70 493.90,248.30 506.30,248.30 518.70,266.20 531.10,245.00 543.50,247.80 555.90,246.30 568.20,274.90 580.60,276.80 593.00,276.00 605.40,276.90 617.80,266.80 630.20,280.80 642.50,270.30 654.90,283.10 667.30,273.20 679.70,269.70 692.10,245.90" stroke-linejoin="round" stroke-width="1.5" stroke="#286bbb" fill="none" stroke-linecap="butt"></polyline><g><circle cx="48.1" cy="187.3" r="1.8" fill="#286bbb"></circle><circle cx="60.5" cy="158.2" r="1.8" fill="#286bbb"></circle><circle cx="72.9" cy="160.5" r="1.8" fill="#286bbb"></circle><circle cx="85.3" cy="178.7" r="1.8" fill="#286bbb"></circle><circle cx="97.7" cy="181.3" r="1.8" fill="#286bbb"></circle><circle cx="110.1" cy="153.3" r="1.8" fill="#286bbb"></circle><circle cx="122.4" cy="191.1" r="1.8" fill="#286bbb"></circle><circle cx="134.8" cy="214.7" r="1.8" fill="#286bbb"></circle><circle cx="147.2" cy="191.1" r="1.8" fill="#286bbb"></circle><circle cx="159.6" cy="136" r="1.8" fill="#286bbb"></circle><circle cx="172" cy="117.1" r="1.8" fill="#286bbb"></circle><circle cx="184.4" cy="111.6" r="1.8" fill="#286bbb"></circle><circle cx="196.7" cy="153.5" r="1.8" fill="#286bbb"></circle><circle cx="209.1" cy="139" r="1.8" fill="#286bbb"></circle><circle cx="221.5" cy="149.4" r="1.8" fill="#286bbb"></circle><circle cx="233.9" cy="164.7" r="1.8" fill="#286bbb"></circle><circle cx="246.3" cy="149.9" r="1.8" fill="#286bbb"></circle><circle cx="258.7" cy="156.9" r="1.8" fill="#286bbb"></circle><circle cx="271" cy="154.9" r="1.8" fill="#286bbb"></circle><circle cx="283.4" cy="169.8" r="1.8" fill="#286bbb"></circle><circle cx="295.8" cy="174.1" r="1.8" fill="#286bbb"></circle><circle cx="308.2" cy="185.5" r="1.8" fill="#286bbb"></circle><circle cx="320.6" cy="213.3" r="1.8" fill="#286bbb"></circle><circle cx="333" cy="187.4" r="1.8" fill="#286bbb"></circle><circle cx="345.3" cy="173" r="1.8" fill="#286bbb"></circle><circle cx="357.7" cy="163.3" r="1.8" fill="#286bbb"></circle><circle cx="370.1" cy="186.3" r="1.8" fill="#286bbb"></circle><circle cx="382.5" cy="224.9" r="1.8" fill="#286bbb"></circle><circle cx="394.9" cy="197.7" r="1.8" fill="#286bbb"></circle><circle cx="407.3" cy="232" r="1.8" fill="#286bbb"></circle><circle cx="419.6" cy="225.6" r="1.8" fill="#286bbb"></circle><circle cx="432" cy="259.3" r="1.8" fill="#286bbb"></circle><circle cx="444.4" cy="231.6" r="1.8" fill="#286bbb"></circle><circle cx="456.8" cy="239.5" r="1.8" fill="#286bbb"></circle><circle cx="469.2" cy="206.4" r="1.8" fill="#286bbb"></circle><circle cx="481.6" cy="247.7" r="1.8" fill="#286bbb"></circle><circle cx="493.9" cy="248.3" r="1.8" fill="#286bbb"></circle><circle cx="506.3" cy="248.3" r="1.8" fill="#286bbb"></circle><circle cx="518.7" cy="266.2" r="1.8" fill="#286bbb"></circle><circle cx="531.1" cy="245" r="1.8" fill="#286bbb"></circle><circle cx="543.5" cy="247.8" r="1.8" fill="#286bbb"></circle><circle cx="555.9" cy="246.3" r="1.8" fill="#286bbb"></circle><circle cx="568.2" cy="274.9" r="1.8" fill="#286bbb"></circle><circle cx="580.6" cy="276.8" r="1.8" fill="#286bbb"></circle><circle cx="593" cy="276" r="1.8" fill="#286bbb"></circle><circle cx="605.4" cy="276.9" r="1.8" fill="#286bbb"></circle><circle cx="617.8" cy="266.8" r="1.8" fill="#286bbb"></circle><circle cx="630.2" cy="280.8" r="1.8" fill="#286bbb"></circle><circle cx="642.5" cy="270.3" r="1.8" fill="#286bbb"></circle><circle cx="654.9" cy="283.1" r="1.8" fill="#286bbb"></circle><circle cx="667.3" cy="273.2" r="1.8" fill="#286bbb"></circle><circle cx="679.7" cy="269.7" r="1.8" fill="#286bbb"></circle><circle cx="692.1" cy="245.9" r="1.8" fill="#286bbb"></circle></g></g><g><path fill="none" stroke-linecap="butt" stroke-linejoin="round" stroke="#fff" stroke-width="2.5" d="M48.1 531.3L60.5 531.3L72.9 531.3L85.3 531.3L97.7 531.3L110.1 531.3L122.4 531.3L134.8 531.3L147.2 531.3L159.6 531.3L172 531.3L184.4 531.3L196.7 531.3L209.1 531.3L221.5 531.3L233.9 531.3L246.3 531.3L258.7 531.3L271 531.3L283.4 531.3L295.8 531.3L308.2 531.3L320.6 531.3L333 531.3L345.3 531.3L357.7 531.3L370.1 531.3L382.5 531.3L394.9 531.3L407.3 531.3L419.6 531.3L432 531.3L444.4 531.3L456.8 531.3L469.2 531.3L481.6 531.3L493.9 531.3L506.3 531.3L518.7 531.3L531.1 531.3L543.5 531.3L555.9 531.3L568.2 531.3L580.6 531.3L593 531.3L605.4 531.3L617.8 531.3L630.2 531.3L642.5 531.3L654.9 531.3L667.3 531.3L679.7 531.3L692.1 531.3"></path><polyline points="48.10,531.30 60.50,531.30 72.90,531.30 85.30,531.30 97.70,531.30 110.10,531.30 122.40,531.30 134.80,531.30 147.20,531.30 159.60,531.30 172.00,531.30 184.40,531.30 196.70,531.30 209.10,531.30 221.50,531.30 233.90,531.30 246.30,531.30 258.70,531.30 271.00,531.30 283.40,531.30 295.80,531.30 308.20,531.30 320.60,531.30 333.00,531.30 345.30,531.30 357.70,531.30 370.10,531.30 382.50,531.30 394.90,531.30 407.30,531.30 419.60,531.30 432.00,531.30 444.40,531.30 456.80,531.30 469.20,531.30 481.60,531.30 493.90,531.30 506.30,531.30 518.70,531.30 531.10,531.30 543.50,531.30 555.90,531.30 568.20,531.30 580.60,531.30 593.00,531.30 605.40,531.30 617.80,531.30 630.20,531.30 642.50,531.30 654.90,531.30 667.30,531.30 679.70,531.30 692.10,531.30" stroke-linejoin="round" stroke-width="1.5" stroke="#00847e" fill="none" stroke-linecap="butt"></polyline><g><circle cx="48.1" cy="531.3" r="1.8" fill="#00847e"></circle><circle cx="60.5" cy="531.3" r="1.8" fill="#00847e"></circle><circle cx="72.9" cy="531.3" r="1.8" fill="#00847e"></circle><circle cx="85.3" cy="531.3" r="1.8" fill="#00847e"></circle><circle cx="97.7" cy="531.3" r="1.8" fill="#00847e"></circle><circle cx="110.1" cy="531.3" r="1.8" fill="#00847e"></circle><circle cx="122.4" cy="531.3" r="1.8" fill="#00847e"></circle><circle cx="134.8" cy="531.3" r="1.8" fill="#00847e"></circle><circle cx="147.2" cy="531.3" r="1.8" fill="#00847e"></circle><circle cx="159.6" cy="531.3" r="1.8" fill="#00847e"></circle><circle cx="172" cy="531.3" r="1.8" fill="#00847e"></circle><circle cx="184.4" cy="531.3" r="1.8" fill="#00847e"></circle><circle cx="196.7" cy="531.3" r="1.8" fill="#00847e"></circle><circle cx="209.1" cy="531.3" r="1.8" fill="#00847e"></circle><circle cx="221.5" cy="531.3" r="1.8" fill="#00847e"></circle><circle cx="233.9" cy="531.3" r="1.8" fill="#00847e"></circle><circle cx="246.3" cy="531.3" r="1.8" fill="#00847e"></circle><circle cx="258.7" cy="531.3" r="1.8" fill="#00847e"></circle><circle cx="271" cy="531.3" r="1.8" fill="#00847e"></circle><circle cx="283.4" cy="531.3" r="1.8" fill="#00847e"></circle><circle cx="295.8" cy="531.3" r="1.8" fill="#00847e"></circle><circle cx="308.2" cy="531.3" r="1.8" fill="#00847e"></circle><circle cx="320.6" cy="531.3" r="1.8" fill="#00847e"></circle><circle cx="333" cy="531.3" r="1.8" fill="#00847e"></circle><circle cx="345.3" cy="531.3" r="1.8" fill="#00847e"></circle><circle cx="357.7" cy="531.3" r="1.8" fill="#00847e"></circle><circle cx="370.1" cy="531.3" r="1.8" fill="#00847e"></circle><circle cx="382.5" cy="531.3" r="1.8" fill="#00847e"></circle><circle cx="394.9" cy="531.3" r="1.8" fill="#00847e"></circle><circle cx="407.3" cy="531.3" r="1.8" fill="#00847e"></circle><circle cx="419.6" cy="531.3" r="1.8" fill="#00847e"></circle><circle cx="432" cy="531.3" r="1.8" fill="#00847e"></circle><circle cx="444.4" cy="531.3" r="1.8" fill="#00847e"></circle><circle cx="456.8" cy="531.3" r="1.8" fill="#00847e"></circle><circle cx="469.2" cy="531.3" r="1.8" fill="#00847e"></circle><circle cx="481.6" cy="531.3" r="1.8" fill="#00847e"></circle><circle cx="493.9" cy="531.3" r="1.8" fill="#00847e"></circle><circle cx="506.3" cy="531.3" r="1.8" fill="#00847e"></circle><circle cx="518.7" cy="531.3" r="1.8" fill="#00847e"></circle><circle cx="531.1" cy="531.3" r="1.8" fill="#00847e"></circle><circle cx="543.5" cy="531.3" r="1.8" fill="#00847e"></circle><circle cx="555.9" cy="531.3" r="1.8" fill="#00847e"></circle><circle cx="568.2" cy="531.3" r="1.8" fill="#00847e"></circle><circle cx="580.6" cy="531.3" r="1.8" fill="#00847e"></circle><circle cx="593" cy="531.3" r="1.8" fill="#00847e"></circle><circle cx="605.4" cy="531.3" r="1.8" fill="#00847e"></circle><circle cx="617.8" cy="531.3" r="1.8" fill="#00847e"></circle><circle cx="630.2" cy="531.3" r="1.8" fill="#00847e"></circle><circle cx="642.5" cy="531.3" r="1.8" fill="#00847e"></circle><circle cx="654.9" cy="531.3" r="1.8" fill="#00847e"></circle><circle cx="667.3" cy="531.3" r="1.8" fill="#00847e"></circle><circle cx="679.7" cy="531.3" r="1.8" fill="#00847e"></circle><circle cx="692.1" cy="531.3" r="1.8" fill="#00847e"></circle></g></g><g><path fill="none" stroke-linecap="butt" stroke-linejoin="round" stroke="#fff" stroke-width="2.5" d="M48.1 531.3L60.5 531.3L72.9 531.3L85.3 531.3L97.7 531.3L110.1 531.3L122.4 531.3L134.8 531.3L147.2 531.3L159.6 531.3L172 531.3L184.4 531.3L196.7 531.3L209.1 531.3L221.5 531.3L233.9 531.3L246.3 531.3L258.7 531.3L271 531.3L283.4 531.3L295.8 531.3L308.2 531.3L320.6 531.3L333 531.3L345.3 531.3L357.7 531.3L370.1 531.3L382.5 531.3L394.9 531.3L407.3 531.3L419.6 531.3L432 531.3L444.4 531.3L456.8 531.3L469.2 531.3L481.6 531.3L493.9 531.3L506.3 531.3L518.7 531.3L531.1 531.3L543.5 531.3L555.9 531.3L568.2 531.2L580.6 531.2L593 531.1L605.4 530.9L617.8 530.7L630.2 530.5L642.5 530.3L654.9 530.1L667.3 529.6L679.7 529.1L692.1 528.3"></path><polyline points="48.10,531.30 60.50,531.30 72.90,531.30 85.30,531.30 97.70,531.30 110.10,531.30 122.40,531.30 134.80,531.30 147.20,531.30 159.60,531.30 172.00,531.30 184.40,531.30 196.70,531.30 209.10,531.30 221.50,531.30 233.90,531.30 246.30,531.30 258.70,531.30 271.00,531.30 283.40,531.30 295.80,531.30 308.20,531.30 320.60,531.30 333.00,531.30 345.30,531.30 357.70,531.30 370.10,531.30 382.50,531.30 394.90,531.30 407.30,531.30 419.60,531.30 432.00,531.30 444.40,531.30 456.80,531.30 469.20,531.30 481.60,531.30 493.90,531.30 506.30,531.30 518.70,531.30 531.10,531.30 543.50,531.30 555.90,531.30 568.20,531.20 580.60,531.20 593.00,531.10 605.40,530.90 617.80,530.70 630.20,530.50 642.50,530.30 654.90,530.10 667.30,529.60 679.70,529.10 692.10,528.30" stroke-linejoin="round" stroke-width="1.5" stroke="#c4523e" fill="none" stroke-linecap="butt"></polyline><g><circle cx="48.1" cy="531.3" r="1.8" fill="#c4523e"></circle><circle cx="60.5" cy="531.3" r="1.8" fill="#c4523e"></circle><circle cx="72.9" cy="531.3" r="1.8" fill="#c4523e"></circle><circle cx="85.3" cy="531.3" r="1.8" fill="#c4523e"></circle><circle cx="97.7" cy="531.3" r="1.8" fill="#c4523e"></circle><circle cx="110.1" cy="531.3" r="1.8" fill="#c4523e"></circle><circle cx="122.4" cy="531.3" r="1.8" fill="#c4523e"></circle><circle cx="134.8" cy="531.3" r="1.8" fill="#c4523e"></circle><circle cx="147.2" cy="531.3" r="1.8" fill="#c4523e"></circle><circle cx="159.6" cy="531.3" r="1.8" fill="#c4523e"></circle><circle cx="172" cy="531.3" r="1.8" fill="#c4523e"></circle><circle cx="184.4" cy="531.3" r="1.8" fill="#c4523e"></circle><circle cx="196.7" cy="531.3" r="1.8" fill="#c4523e"></circle><circle cx="209.1" cy="531.3" r="1.8" fill="#c4523e"></circle><circle cx="221.5" cy="531.3" r="1.8" fill="#c4523e"></circle><circle cx="233.9" cy="531.3" r="1.8" fill="#c4523e"></circle><circle cx="246.3" cy="531.3" r="1.8" fill="#c4523e"></circle><circle cx="258.7" cy="531.3" r="1.8" fill="#c4523e"></circle><circle cx="271" cy="531.3" r="1.8" fill="#c4523e"></circle><circle cx="283.4" cy="531.3" r="1.8" fill="#c4523e"></circle><circle cx="295.8" cy="531.3" r="1.8" fill="#c4523e"></circle><circle cx="308.2" cy="531.3" r="1.8" fill="#c4523e"></circle><circle cx="320.6" cy="531.3" r="1.8" fill="#c4523e"></circle><circle cx="333" cy="531.3" r="1.8" fill="#c4523e"></circle><circle cx="345.3" cy="531.3" r="1.8" fill="#c4523e"></circle><circle cx="357.7" cy="531.3" r="1.8" fill="#c4523e"></circle><circle cx="370.1" cy="531.3" r="1.8" fill="#c4523e"></circle><circle cx="382.5" cy="531.3" r="1.8" fill="#c4523e"></circle><circle cx="394.9" cy="531.3" r="1.8" fill="#c4523e"></circle><circle cx="407.3" cy="531.3" r="1.8" fill="#c4523e"></circle><circle cx="419.6" cy="531.3" r="1.8" fill="#c4523e"></circle><circle cx="432" cy="531.3" r="1.8" fill="#c4523e"></circle><circle cx="444.4" cy="531.3" r="1.8" fill="#c4523e"></circle><circle cx="456.8" cy="531.3" r="1.8" fill="#c4523e"></circle><circle cx="469.2" cy="531.3" r="1.8" fill="#c4523e"></circle><circle cx="481.6" cy="531.3" r="1.8" fill="#c4523e"></circle><circle cx="493.9" cy="531.3" r="1.8" fill="#c4523e"></circle><circle cx="506.3" cy="531.3" r="1.8" fill="#c4523e"></circle><circle cx="518.7" cy="531.3" r="1.8" fill="#c4523e"></circle><circle cx="531.1" cy="531.3" r="1.8" fill="#c4523e"></circle><circle cx="543.5" cy="531.3" r="1.8" fill="#c4523e"></circle><circle cx="555.9" cy="531.3" r="1.8" fill="#c4523e"></circle><circle cx="568.2" cy="531.2" r="1.8" fill="#c4523e"></circle><circle cx="580.6" cy="531.2" r="1.8" fill="#c4523e"></circle><circle cx="593" cy="531.1" r="1.8" fill="#c4523e"></circle><circle cx="605.4" cy="530.9" r="1.8" fill="#c4523e"></circle><circle cx="617.8" cy="530.7" r="1.8" fill="#c4523e"></circle><circle cx="630.2" cy="530.5" r="1.8" fill="#c4523e"></circle><circle cx="642.5" cy="530.3" r="1.8" fill="#c4523e"></circle><circle cx="654.9" cy="530.1" r="1.8" fill="#c4523e"></circle><circle cx="667.3" cy="529.6" r="1.8" fill="#c4523e"></circle><circle cx="679.7" cy="529.1" r="1.8" fill="#c4523e"></circle><circle cx="692.1" cy="528.3" r="1.8" fill="#c4523e"></circle></g></g><g><path fill="none" stroke-linecap="butt" stroke-linejoin="round" stroke="#fff" stroke-width="2.5" d="M48.1 380.6L60.5 403.3L72.9 408.4L85.3 397.5L97.7 395.3L110.1 405.4L122.4 405.7L134.8 414.1L147.2 422.1L159.6 435.3L172 432.7L184.4 433.4L196.7 438.4L209.1 432.2L221.5 444.4L233.9 451.6L246.3 446.3L258.7 461.1L271 458.3L283.4 453.6L295.8 458.7L308.2 463.5L320.6 456.7L333 460L345.3 467.4L357.7 469.6L370.1 471.3L382.5 466.6L394.9 472.3L407.3 471.4L419.6 476.9L432 463.3L444.4 465.6L456.8 433.4L469.2 433L481.6 419.1L493.9 421.5L506.3 447.8L518.7 428L531.1 451.6L543.5 464.9L555.9 464.4L568.2 448.5L580.6 458.8L593 467.3L605.4 467.1L617.8 478.7L630.2 477L642.5 472.4L654.9 468.5L667.3 464.8L679.7 455.4L692.1 478.3"></path><polyline points="48.10,380.60 60.50,403.30 72.90,408.40 85.30,397.50 97.70,395.30 110.10,405.40 122.40,405.70 134.80,414.10 147.20,422.10 159.60,435.30 172.00,432.70 184.40,433.40 196.70,438.40 209.10,432.20 221.50,444.40 233.90,451.60 246.30,446.30 258.70,461.10 271.00,458.30 283.40,453.60 295.80,458.70 308.20,463.50 320.60,456.70 333.00,460.00 345.30,467.40 357.70,469.60 370.10,471.30 382.50,466.60 394.90,472.30 407.30,471.40 419.60,476.90 432.00,463.30 444.40,465.60 456.80,433.40 469.20,433.00 481.60,419.10 493.90,421.50 506.30,447.80 518.70,428.00 531.10,451.60 543.50,464.90 555.90,464.40 568.20,448.50 580.60,458.80 593.00,467.30 605.40,467.10 617.80,478.70 630.20,477.00 642.50,472.40 654.90,468.50 667.30,464.80 679.70,455.40 692.10,478.30" stroke-linejoin="round" stroke-width="1.5" stroke="#883039" fill="none" stroke-linecap="butt"></polyline><g><circle cx="48.1" cy="380.6" r="1.8" fill="#883039"></circle><circle cx="60.5" cy="403.3" r="1.8" fill="#883039"></circle><circle cx="72.9" cy="408.4" r="1.8" fill="#883039"></circle><circle cx="85.3" cy="397.5" r="1.8" fill="#883039"></circle><circle cx="97.7" cy="395.3" r="1.8" fill="#883039"></circle><circle cx="110.1" cy="405.4" r="1.8" fill="#883039"></circle><circle cx="122.4" cy="405.7" r="1.8" fill="#883039"></circle><circle cx="134.8" cy="414.1" r="1.8" fill="#883039"></circle><circle cx="147.2" cy="422.1" r="1.8" fill="#883039"></circle><circle cx="159.6" cy="435.3" r="1.8" fill="#883039"></circle><circle cx="172" cy="432.7" r="1.8" fill="#883039"></circle><circle cx="184.4" cy="433.4" r="1.8" fill="#883039"></circle><circle cx="196.7" cy="438.4" r="1.8" fill="#883039"></circle><circle cx="209.1" cy="432.2" r="1.8" fill="#883039"></circle><circle cx="221.5" cy="444.4" r="1.8" fill="#883039"></circle><circle cx="233.9" cy="451.6" r="1.8" fill="#883039"></circle><circle cx="246.3" cy="446.3" r="1.8" fill="#883039"></circle><circle cx="258.7" cy="461.1" r="1.8" fill="#883039"></circle><circle cx="271" cy="458.3" r="1.8" fill="#883039"></circle><circle cx="283.4" cy="453.6" r="1.8" fill="#883039"></circle><circle cx="295.8" cy="458.7" r="1.8" fill="#883039"></circle><circle cx="308.2" cy="463.5" r="1.8" fill="#883039"></circle><circle cx="320.6" cy="456.7" r="1.8" fill="#883039"></circle><circle cx="333" cy="460" r="1.8" fill="#883039"></circle><circle cx="345.3" cy="467.4" r="1.8" fill="#883039"></circle><circle cx="357.7" cy="469.6" r="1.8" fill="#883039"></circle><circle cx="370.1" cy="471.3" r="1.8" fill="#883039"></circle><circle cx="382.5" cy="466.6" r="1.8" fill="#883039"></circle><circle cx="394.9" cy="472.3" r="1.8" fill="#883039"></circle><circle cx="407.3" cy="471.4" r="1.8" fill="#883039"></circle><circle cx="419.6" cy="476.9" r="1.8" fill="#883039"></circle><circle cx="432" cy="463.3" r="1.8" fill="#883039"></circle><circle cx="444.4" cy="465.6" r="1.8" fill="#883039"></circle><circle cx="456.8" cy="433.4" r="1.8" fill="#883039"></circle><circle cx="469.2" cy="433" r="1.8" fill="#883039"></circle><circle cx="481.6" cy="419.1" r="1.8" fill="#883039"></circle><circle cx="493.9" cy="421.5" r="1.8" fill="#883039"></circle><circle cx="506.3" cy="447.8" r="1.8" fill="#883039"></circle><circle cx="518.7" cy="428" r="1.8" fill="#883039"></circle><circle cx="531.1" cy="451.6" r="1.8" fill="#883039"></circle><circle cx="543.5" cy="464.9" r="1.8" fill="#883039"></circle><circle cx="555.9" cy="464.4" r="1.8" fill="#883039"></circle><circle cx="568.2" cy="448.5" r="1.8" fill="#883039"></circle><circle cx="580.6" cy="458.8" r="1.8" fill="#883039"></circle><circle cx="593" cy="467.3" r="1.8" fill="#883039"></circle><circle cx="605.4" cy="467.1" r="1.8" fill="#883039"></circle><circle cx="617.8" cy="478.7" r="1.8" fill="#883039"></circle><circle cx="630.2" cy="477" r="1.8" fill="#883039"></circle><circle cx="642.5" cy="472.4" r="1.8" fill="#883039"></circle><circle cx="654.9" cy="468.5" r="1.8" fill="#883039"></circle><circle cx="667.3" cy="464.8" r="1.8" fill="#883039"></circle><circle cx="679.7" cy="455.4" r="1.8" fill="#883039"></circle><circle cx="692.1" cy="478.3" r="1.8" fill="#883039"></circle></g></g><g><path fill="none" stroke-linecap="butt" stroke-linejoin="round" stroke="#fff" stroke-width="2.5" d="M48.1 94.2L60.5 100.2L72.9 96.3L85.3 89.3L97.7 118.6L110.1 138.3L122.4 140.1L134.8 147.8L147.2 158.4L159.6 160.7L172 177.9L184.4 196.1L196.7 207.1L209.1 232.5L221.5 240.4L233.9 260.8L246.3 305.4L258.7 272.5L271 288.4L283.4 286.2L295.8 266.5L308.2 267.2L320.6 259.3L333 268.8L345.3 243.8L357.7 231.6L370.1 230.3L382.5 215.2L394.9 211.1L407.3 209.4L419.6 216.4L432 210L444.4 211.4L456.8 181.2L469.2 195.9L481.6 168.5L493.9 169.4L506.3 166.4L518.7 163.1L531.1 178.3L543.5 184L555.9 177.1L568.2 184.1L580.6 182.5L593 191.4L605.4 179.6L617.8 173.9L630.2 160.6L642.5 157.5L654.9 156.4L667.3 190.4L679.7 185.5L692.1 182.3"></path><polyline points="48.10,94.20 60.50,100.20 72.90,96.30 85.30,89.30 97.70,118.60 110.10,138.30 122.40,140.10 134.80,147.80 147.20,158.40 159.60,160.70 172.00,177.90 184.40,196.10 196.70,207.10 209.10,232.50 221.50,240.40 233.90,260.80 246.30,305.40 258.70,272.50 271.00,288.40 283.40,286.20 295.80,266.50 308.20,267.20 320.60,259.30 333.00,268.80 345.30,243.80 357.70,231.60 370.10,230.30 382.50,215.20 394.90,211.10 407.30,209.40 419.60,216.40 432.00,210.00 444.40,211.40 456.80,181.20 469.20,195.90 481.60,168.50 493.90,169.40 506.30,166.40 518.70,163.10 531.10,178.30 543.50,184.00 555.90,177.10 568.20,184.10 580.60,182.50 593.00,191.40 605.40,179.60 617.80,173.90 630.20,160.60 642.50,157.50 654.90,156.40 667.30,190.40 679.70,185.50 692.10,182.30" stroke-linejoin="round" stroke-width="1.5" stroke="#c15065" fill="none" stroke-linecap="butt"></polyline><g><circle cx="48.1" cy="94.2" r="1.8" fill="#c15065"></circle><circle cx="60.5" cy="100.2" r="1.8" fill="#c15065"></circle><circle cx="72.9" cy="96.3" r="1.8" fill="#c15065"></circle><circle cx="85.3" cy="89.3" r="1.8" fill="#c15065"></circle><circle cx="97.7" cy="118.6" r="1.8" fill="#c15065"></circle><circle cx="110.1" cy="138.3" r="1.8" fill="#c15065"></circle><circle cx="122.4" cy="140.1" r="1.8" fill="#c15065"></circle><circle cx="134.8" cy="147.8" r="1.8" fill="#c15065"></circle><circle cx="147.2" cy="158.4" r="1.8" fill="#c15065"></circle><circle cx="159.6" cy="160.7" r="1.8" fill="#c15065"></circle><circle cx="172" cy="177.9" r="1.8" fill="#c15065"></circle><circle cx="184.4" cy="196.1" r="1.8" fill="#c15065"></circle><circle cx="196.7" cy="207.1" r="1.8" fill="#c15065"></circle><circle cx="209.1" cy="232.5" r="1.8" fill="#c15065"></circle><circle cx="221.5" cy="240.4" r="1.8" fill="#c15065"></circle><circle cx="233.9" cy="260.8" r="1.8" fill="#c15065"></circle><circle cx="246.3" cy="305.4" r="1.8" fill="#c15065"></circle><circle cx="258.7" cy="272.5" r="1.8" fill="#c15065"></circle><circle cx="271" cy="288.4" r="1.8" fill="#c15065"></circle><circle cx="283.4" cy="286.2" r="1.8" fill="#c15065"></circle><circle cx="295.8" cy="266.5" r="1.8" fill="#c15065"></circle><circle cx="308.2" cy="267.2" r="1.8" fill="#c15065"></circle><circle cx="320.6" cy="259.3" r="1.8" fill="#c15065"></circle><circle cx="333" cy="268.8" r="1.8" fill="#c15065"></circle><circle cx="345.3" cy="243.8" r="1.8" fill="#c15065"></circle><circle cx="357.7" cy="231.6" r="1.8" fill="#c15065"></circle><circle cx="370.1" cy="230.3" r="1.8" fill="#c15065"></circle><circle cx="382.5" cy="215.2" r="1.8" fill="#c15065"></circle><circle cx="394.9" cy="211.1" r="1.8" fill="#c15065"></circle><circle cx="407.3" cy="209.4" r="1.8" fill="#c15065"></circle><circle cx="419.6" cy="216.4" r="1.8" fill="#c15065"></circle><circle cx="432" cy="210" r="1.8" fill="#c15065"></circle><circle cx="444.4" cy="211.4" r="1.8" fill="#c15065"></circle><circle cx="456.8" cy="181.2" r="1.8" fill="#c15065"></circle><circle cx="469.2" cy="195.9" r="1.8" fill="#c15065"></circle><circle cx="481.6" cy="168.5" r="1.8" fill="#c15065"></circle><circle cx="493.9" cy="169.4" r="1.8" fill="#c15065"></circle><circle cx="506.3" cy="166.4" r="1.8" fill="#c15065"></circle><circle cx="518.7" cy="163.1" r="1.8" fill="#c15065"></circle><circle cx="531.1" cy="178.3" r="1.8" fill="#c15065"></circle><circle cx="543.5" cy="184" r="1.8" fill="#c15065"></circle><circle cx="555.9" cy="177.1" r="1.8" fill="#c15065"></circle><circle cx="568.2" cy="184.1" r="1.8" fill="#c15065"></circle><circle cx="580.6" cy="182.5" r="1.8" fill="#c15065"></circle><circle cx="593" cy="191.4" r="1.8" fill="#c15065"></circle><circle cx="605.4" cy="179.6" r="1.8" fill="#c15065"></circle><circle cx="617.8" cy="173.9" r="1.8" fill="#c15065"></circle><circle cx="630.2" cy="160.6" r="1.8" fill="#c15065"></circle><circle cx="642.5" cy="157.5" r="1.8" fill="#c15065"></circle><circle cx="654.9" cy="156.4" r="1.8" fill="#c15065"></circle><circle cx="667.3" cy="190.4" r="1.8" fill="#c15065"></circle><circle cx="679.7" cy="185.5" r="1.8" fill="#c15065"></circle><circle cx="692.1" cy="182.3" r="1.8" fill="#c15065"></circle></g></g></g></g></g></g><g class="SourcesFooter" style="fill:#5b5b5b"><text x="16.0" y="580.9" style="font-size:13.5px;line-height:1.2"><tspan x="16" y="580.9"><tspan style="font-weight:700">Data source:</tspan> Energy Institute - Statistical Review of World Energy (2023)</tspan></text><text font-size="13.50" x="615.3" y="580.9"><tspan x="615.3" y="580.895"><a target="_blank" style="fill: #5b5b5b;  text-decoration: underline;" href="https://ourworldindata.org/energy">OurWorldInData.org/energy</a> | <a target="_blank" style="fill: #5b5b5b;  text-decoration: underline;" href="https://creativecommons.org/licenses/by/4.0/">CC BY</a></tspan></text></g><line x1="16" y1="600" x2="834" y2="600" stroke="#e7e7e7"></line><g transform="translate(15, 616)"><text x="0.0" y="12.0" style="font-size:12.375px;fill:#5b5b5b;line-height:1.2"><tspan x="0" y="12.0"><tspan style="font-weight:700">1.</tspan> <tspan style="font-weight:700">Primary energy</tspan>: Primary energy is the energy available as resources – such as the fuels burnt in power plants – before it has been transformed.</tspan><tspan x="0" y="26.9">This relates to the coal before it has been burned, the uranium, or the barrels of oil. Primary energy includes energy that the end user needs, in the</tspan><tspan x="0" y="41.7">form of electricity, transport and heating, plus inefficiencies and energy that is lost when raw resources are transformed into a usable form. You can</tspan><tspan x="0" y="56.6">read more on the different ways of measuring energy in our article.</tspan></text><text x="0.0" y="79.4" style="font-size:12.375px;fill:#5b5b5b;line-height:1.2"><tspan x="0" y="79.4"><tspan style="font-weight:700">2.</tspan> <tspan style="font-weight:700">Substitution method</tspan>: The ‘substitution method’ is used by researchers to correct primary energy consumption for efficiency losses experienced</tspan><tspan x="0" y="94.3">by fossil fuels. It tries to adjust non-fossil energy sources to the inputs that would be needed if it was generated from fossil fuels. It assumes that</tspan><tspan x="0" y="109.1">wind and solar electricity is as inefficient as coal or gas. To do this, energy generation from non-fossil sources are divided by a standard ‘thermal</tspan><tspan x="0" y="124.0">efficiency factor’ – typically around 0.4 Nuclear power is also adjusted despite it also experiencing thermal losses in a power plant. Since it’s</tspan><tspan x="0" y="138.8">reported in terms of electricity output, we need to do this adjustment to calculate its equivalent input value. You can read more about this adjustment</tspan><tspan x="0" y="153.7">in our article.</tspan></text></g></svg>